CooperativaSans.ufo
<glyph name="numbersign" format="2">
	<advance width="688"/>
	<unicode hex="0023"/>
	<outline>
		<contour>
			<point x="107" y="0" type="curve"/>
			<point x="199" y="0" type="line"/>
			<point x="199" y="0"/>
			<point x="226" y="190"/>
			<point x="254" y="379" type="curve" smooth="yes"/>
			<point x="282" y="565"/>
			<point x="311" y="750"/>
			<point x="311" y="750" type="curve"/>
			<point x="219" y="750" type="line"/>
			<point x="219" y="750"/>
			<point x="193" y="565"/>
			<point x="166" y="379" type="curve" smooth="yes"/>
			<point x="137" y="190"/>
			<point x="107" y="0"/>
		</contour>
		<contour>
			<point x="20" y="216" type="curve"/>
			<point x="20" y="216"/>
			<point x="200" y="222"/>
			<point x="315" y="222" type="curve" smooth="yes"/>
			<point x="321" y="222" type="line"/>
			<point x="606" y="217" type="line" smooth="yes"/>
			<point x="607" y="217"/>
			<point x="612" y="233"/>
			<point x="615" y="262" type="curve" smooth="yes"/>
			<point x="618" y="292"/>
			<point x="617" y="301"/>
			<point x="617" y="301" type="curve"/>
			<point x="617" y="301"/>
			<point x="447" y="297"/>
			<point x="332" y="297" type="curve" smooth="yes"/>
			<point x="326" y="297" type="line"/>
			<point x="31" y="300" type="line"/>
			<point x="31" y="300"/>
			<point x="24" y="292"/>
			<point x="21" y="262" type="curve" smooth="yes"/>
			<point x="18" y="232"/>
			<point x="21" y="216"/>
		</contour>
		<contour>
			<point x="354" y="0" type="curve"/>
			<point x="446" y="0" type="line"/>
			<point x="446" y="0"/>
			<point x="472" y="188"/>
			<point x="500" y="375" type="curve" smooth="yes"/>
			<point x="527" y="563"/>
			<point x="557" y="750"/>
			<point x="557" y="750" type="curve"/>
			<point x="465" y="750" type="line"/>
			<point x="465" y="750"/>
			<point x="439" y="565"/>
			<point x="412" y="378" type="curve" smooth="yes"/>
			<point x="385" y="190"/>
			<point x="354" y="0"/>
		</contour>
		<contour>
			<point x="50" y="462" type="curve"/>
			<point x="50" y="462"/>
			<point x="231" y="467"/>
			<point x="346" y="467" type="curve" smooth="yes"/>
			<point x="352" y="467" type="line"/>
			<point x="638" y="463" type="line"/>
			<point x="638" y="463"/>
			<point x="644" y="476"/>
			<point x="647" y="505" type="curve" smooth="yes"/>
			<point x="650" y="535"/>
			<point x="649" y="547"/>
			<point x="649" y="547" type="curve"/>
			<point x="649" y="547"/>
			<point x="478" y="542"/>
			<point x="363" y="542" type="curve" smooth="yes"/>
			<point x="356" y="542" type="line"/>
			<point x="61" y="546" type="line"/>
			<point x="61" y="546"/>
			<point x="54" y="536"/>
			<point x="51" y="506" type="curve" smooth="yes"/>
			<point x="48" y="476"/>
			<point x="50" y="462"/>
		</contour>
	</outline>
</glyph>
<glyph name="dollar" format="2">
	<advance width="639"/>
	<unicode hex="0024"/>
	<outline>
		<component base="S"/>
		<contour>
			<point x="269" y="-126" type="curve"/>
			<point x="378" y="-126" type="line"/>
			<point x="378" y="-126"/>
			<point x="369" y="11"/>
			<point x="369" y="209" type="curve" smooth="yes"/>
			<point x="369" y="267"/>
			<point x="366" y="324"/>
			<point x="366" y="382" type="curve"/>
			<point x="366" y="434"/>
			<point x="369" y="487"/>
			<point x="369" y="539" type="curve" smooth="yes"/>
			<point x="369" y="740"/>
			<point x="381" y="874"/>
			<point x="381" y="874" type="curve"/>
			<point x="266" y="874" type="line"/>
			<point x="266" y="874"/>
			<point x="278" y="740"/>
			<point x="278" y="539" type="curve" smooth="yes"/>
			<point x="278" y="497"/>
			<point x="279" y="454"/>
			<point x="279" y="412" type="curve"/>
			<point x="279" y="344"/>
			<point x="278" y="277"/>
			<point x="278" y="209" type="curve" smooth="yes"/>
			<point x="278" y="11"/>
			<point x="269" y="-126"/>
		</contour>
	</outline>
</glyph>
<glyph name="ampersand" format="2">
	<advance width="774"/>
	<unicode hex="0026"/>
	<outline>
		<contour>
			<point x="680" y="-14" type="curve"/>
			<point x="706" y="9"/>
			<point x="723" y="39"/>
			<point x="734" y="73" type="curve"/>
			<point x="691" y="77"/>
			<point x="521" y="161"/>
			<point x="366" y="326" type="curve" smooth="yes"/>
			<point x="288" y="409"/>
			<point x="229" y="499"/>
			<point x="229" y="571" type="curve" smooth="yes"/>
			<point x="229" y="637"/>
			<point x="279" y="690"/>
			<point x="350" y="690" type="curve" smooth="yes"/>
			<point x="398" y="690"/>
			<point x="438" y="665"/>
			<point x="458" y="630" type="curve"/>
			<point x="486" y="642"/>
			<point x="509" y="663"/>
			<point x="525" y="691" type="curve"/>
			<point x="487" y="736"/>
			<point x="434" y="766"/>
			<point x="351" y="766" type="curve" smooth="yes"/>
			<point x="202" y="766"/>
			<point x="124" y="670"/>
			<point x="124" y="567" type="curve" smooth="yes"/>
			<point x="124" y="468"/>
			<point x="196" y="362"/>
			<point x="303" y="253" type="curve" smooth="yes"/>
			<point x="429" y="124"/>
			<point x="611" y="-14"/>
		</contour>
		<contour>
			<point x="315" y="-14" type="curve" smooth="yes"/>
			<point x="562" y="-14"/>
			<point x="663" y="244"/>
			<point x="685" y="295" type="curve"/>
			<point x="654" y="311"/>
			<point x="619" y="317"/>
			<point x="582" y="316" type="curve"/>
			<point x="567" y="274"/>
			<point x="505" y="59"/>
			<point x="326" y="59" type="curve" smooth="yes"/>
			<point x="238" y="59"/>
			<point x="156" y="111"/>
			<point x="156" y="227" type="curve" smooth="yes"/>
			<point x="156" y="301"/>
			<point x="189" y="350"/>
			<point x="266" y="370" type="curve"/>
			<point x="228" y="432" type="line"/>
			<point x="134" y="403"/>
			<point x="50" y="337"/>
			<point x="50" y="217" type="curve" smooth="yes"/>
			<point x="50" y="71"/>
			<point x="173" y="-14"/>
		</contour>
	</outline>
</glyph>
<glyph name="asterisk" format="2">
	<advance width="436"/>
	<unicode hex="002A"/>
	<outline>
		<contour>
			<point x="308" y="396" type="line"/>
			<point x="336" y="409"/>
			<point x="367" y="433"/>
			<point x="386" y="452" type="curve"/>
			<point x="262" y="585" type="line"/>
			<point x="426" y="616" type="line"/>
			<point x="421" y="646"/>
			<point x="409" y="684"/>
			<point x="397" y="708" type="curve"/>
			<point x="246" y="638" type="line"/>
			<point x="266" y="803" type="line"/>
			<point x="240" y="808"/>
			<point x="200" y="808"/>
			<point x="170" y="803" type="curve"/>
			<point x="190" y="638" type="line"/>
			<point x="39" y="710" type="line"/>
			<point x="27" y="686"/>
			<point x="15" y="647"/>
			<point x="10" y="617" type="curve"/>
			<point x="174" y="586" type="line"/>
			<point x="50" y="454" type="line"/>
			<point x="69" y="435"/>
			<point x="100" y="410"/>
			<point x="128" y="397" type="curve"/>
			<point x="218" y="553" type="line"/>
		</contour>
	</outline>
</glyph>
<glyph name="comma" format="2">
	<advance width="276"/>
	<unicode hex="002C"/>
	<outline>
		<contour>
			<point x="105" y="-187" type="curve"/>
			<point x="167" y="-115"/>
			<point x="216" y="-8"/>
			<point x="216" y="76" type="curve"/>
			<point x="118" y="85" type="line"/>
			<point x="129" y="0"/>
			<point x="111" y="-81"/>
			<point x="50" y="-148" type="curve"/>
			<point x="55" y="-161"/>
			<point x="86" y="-191"/>
		</contour>
		<contour>
			<point x="141" y="0" type="curve" smooth="yes"/>
			<point x="183" y="0"/>
			<point x="216" y="33"/>
			<point x="216" y="76" type="curve" smooth="yes"/>
			<point x="216" y="118"/>
			<point x="183" y="150"/>
			<point x="141" y="150" type="curve" smooth="yes"/>
			<point x="98" y="150"/>
			<point x="67" y="118"/>
			<point x="67" y="76" type="curve" smooth="yes"/>
			<point x="67" y="33"/>
			<point x="98" y="0"/>
		</contour>
	</outline>
</glyph>
<glyph name="period" format="2">
	<advance width="269"/>
	<unicode hex="002E"/>
	<outline>
		<contour>
			<point x="134" y="-35" type="curve" smooth="yes"/>
			<point x="176" y="-35"/>
			<point x="209" y="-2"/>
			<point x="209" y="40" type="curve" smooth="yes"/>
			<point x="209" y="83"/>
			<point x="176" y="114"/>
			<point x="134" y="114" type="curve" smooth="yes"/>
			<point x="91" y="114"/>
			<point x="60" y="83"/>
			<point x="60" y="40" type="curve" smooth="yes"/>
			<point x="60" y="-2"/>
			<point x="91" y="-35"/>
		</contour>
	</outline>
</glyph>
<glyph name="slash" format="2">
	<advance width="524"/>
	<unicode hex="002F"/>
	<outline>
		<contour>
			<point x="48" y="-79" type="curve"/>
			<point x="152" y="-79" type="line"/>
			<point x="152" y="-79"/>
			<point x="238" y="155"/>
			<point x="321" y="375" type="curve" smooth="yes"/>
			<point x="394" y="568"/>
			<point x="464" y="750"/>
			<point x="464" y="750" type="curve"/>
			<point x="462" y="750"/>
			<point x="439" y="752"/>
			<point x="417" y="752" type="curve" smooth="yes"/>
			<point x="394" y="752"/>
			<point x="360" y="750"/>
			<point x="360" y="750" type="curve"/>
			<point x="361" y="750"/>
			<point x="295" y="571"/>
			<point x="223" y="379" type="curve" smooth="yes"/>
			<point x="140" y="158"/>
			<point x="48" y="-79"/>
		</contour>
	</outline>
</glyph>
<glyph name="zero" format="2">
	<advance width="665"/>
	<unicode hex="0030"/>
	<outline>
		<contour>
			<point x="335" y="-16" type="curve" smooth="yes"/>
			<point x="503" y="-16"/>
			<point x="605" y="87"/>
			<point x="605" y="375" type="curve" smooth="yes"/>
			<point x="605" y="663"/>
			<point x="503" y="766"/>
			<point x="335" y="766" type="curve" smooth="yes"/>
			<point x="167" y="766"/>
			<point x="60" y="663"/>
			<point x="60" y="375" type="curve" smooth="yes"/>
			<point x="60" y="87"/>
			<point x="167" y="-16"/>
		</contour>
		<contour>
			<point x="335" y="64" type="curve" smooth="yes"/>
			<point x="242" y="64"/>
			<point x="165" y="146"/>
			<point x="165" y="375" type="curve" smooth="yes"/>
			<point x="165" y="604"/>
			<point x="242" y="686"/>
			<point x="335" y="686" type="curve" smooth="yes"/>
			<point x="428" y="686"/>
			<point x="500" y="604"/>
			<point x="500" y="375" type="curve" smooth="yes"/>
			<point x="500" y="146"/>
			<point x="428" y="64"/>
		</contour>
	</outline>
</glyph>
<glyph name="one" format="2">
	<advance width="511"/>
	<unicode hex="0031"/>
	<outline>
		<contour>
			<point x="226" y="0" type="curve"/>
			<point x="337" y="0" type="line"/>
			<point x="337" y="0"/>
			<point x="330" y="117"/>
			<point x="330" y="335" type="curve" smooth="yes"/>
			<point x="330" y="415" type="line" smooth="yes"/>
			<point x="330" y="616"/>
			<point x="336" y="750"/>
			<point x="336" y="750" type="curve"/>
			<point x="228" y="750" type="line"/>
			<point x="228" y="750"/>
			<point x="233" y="616"/>
			<point x="233" y="415" type="curve" smooth="yes"/>
			<point x="233" y="335" type="line" smooth="yes"/>
			<point x="233" y="117"/>
			<point x="226" y="0"/>
		</contour>
		<contour>
			<point x="86" y="0" type="curve"/>
			<point x="475" y="0" type="line"/>
			<point x="479" y="26"/>
			<point x="479" y="53"/>
			<point x="475" y="83" type="curve"/>
			<point x="345" y="73"/>
			<point x="218" y="74"/>
			<point x="88" y="83" type="curve"/>
			<point x="78" y="53"/>
			<point x="79" y="26"/>
		</contour>
		<contour>
			<point x="101" y="526" type="curve"/>
			<point x="234" y="658" type="line"/>
			<point x="228" y="750" type="line"/>
			<point x="40" y="593" type="line"/>
			<point x="47" y="566"/>
			<point x="77" y="535"/>
		</contour>
	</outline>
</glyph>
<glyph name="two" format="2">
	<advance width="574"/>
	<unicode hex="0032"/>
	<outline>
		<contour>
			<point x="59" y="0" type="line"/>
			<point x="511" y="0" type="line"/>
			<point x="516" y="30"/>
			<point x="515" y="62"/>
			<point x="511" y="94" type="curve"/>
			<point x="394" y="85"/>
			<point x="280" y="81"/>
			<point x="167" y="89" type="curve"/>
			<point x="161" y="255"/>
			<point x="510" y="357"/>
			<point x="510" y="556" type="curve" smooth="yes"/>
			<point x="510" y="687"/>
			<point x="389" y="765"/>
			<point x="280" y="766" type="curve" smooth="yes"/>
			<point x="131" y="766"/>
			<point x="43" y="662"/>
			<point x="43" y="662" type="curve"/>
			<point x="43" y="662"/>
			<point x="42" y="644"/>
			<point x="58" y="617" type="curve" smooth="yes"/>
			<point x="80" y="581"/>
			<point x="97" y="572"/>
			<point x="97" y="572" type="curve"/>
			<point x="97" y="572"/>
			<point x="159" y="685"/>
			<point x="261" y="685" type="curve" smooth="yes"/>
			<point x="340" y="685"/>
			<point x="403" y="632"/>
			<point x="403" y="558" type="curve" smooth="yes"/>
			<point x="403" y="389"/>
			<point x="59" y="308"/>
			<point x="59" y="90" type="curve" smooth="yes"/>
		</contour>
	</outline>
</glyph>
<glyph name="four" format="2">
	<advance width="574"/>
	<unicode hex="0034"/>
	<outline>
		<contour>
			<point x="20" y="272" type="curve"/>
			<point x="66" y="270"/>
			<point x="122" y="269"/>
			<point x="129" y="279" type="curve" smooth="yes"/>
			<point x="150" y="309"/>
			<point x="418" y="695"/>
			<point x="418" y="694" type="curve"/>
			<point x="360" y="750" type="line"/>
			<point x="360" y="750"/>
			<point x="20" y="273"/>
		</contour>
		<contour>
			<point x="539" y="206" type="curve"/>
			<point x="545" y="232"/>
			<point x="546" y="278"/>
			<point x="539" y="302" type="curve"/>
			<point x="539" y="302"/>
			<point x="426" y="295"/>
			<point x="308" y="295" type="curve" smooth="yes"/>
			<point x="65" y="295" type="line"/>
			<point x="20" y="272" type="line"/>
			<point x="20" y="211" type="line"/>
			<point x="310" y="211" type="line" smooth="yes"/>
			<point x="445" y="211"/>
			<point x="539" y="206"/>
		</contour>
		<contour>
			<point x="361" y="0" type="curve"/>
			<point x="472" y="0" type="line"/>
			<point x="472" y="0"/>
			<point x="465" y="117"/>
			<point x="465" y="335" type="curve" smooth="yes"/>
			<point x="465" y="415" type="line" smooth="yes"/>
			<point x="465" y="616"/>
			<point x="471" y="750"/>
			<point x="471" y="750" type="curve"/>
			<point x="363" y="750" type="line"/>
			<point x="363" y="750"/>
			<point x="368" y="616"/>
			<point x="368" y="415" type="curve" smooth="yes"/>
			<point x="368" y="335" type="line" smooth="yes"/>
			<point x="368" y="117"/>
			<point x="361" y="0"/>
		</contour>
	</outline>
</glyph>
<glyph name="five" format="2">
	<advance width="581"/>
	<unicode hex="0035"/>
	<outline>
		<contour>
			<point x="274" y="-15" type="curve" smooth="yes"/>
			<point x="428" y="-15"/>
			<point x="521" y="83"/>
			<point x="521" y="234" type="curve" smooth="yes"/>
			<point x="521" y="367"/>
			<point x="449" y="474"/>
			<point x="296" y="474" type="curve" smooth="yes"/>
			<point x="241" y="474"/>
			<point x="171" y="461"/>
			<point x="73" y="396" type="curve"/>
			<point x="136" y="343" type="line"/>
			<point x="173" y="374"/>
			<point x="217" y="397"/>
			<point x="276" y="397" type="curve" smooth="yes"/>
			<point x="370" y="397"/>
			<point x="426" y="339"/>
			<point x="426" y="230" type="curve" smooth="yes"/>
			<point x="426" y="131"/>
			<point x="379" y="63"/>
			<point x="278" y="63" type="curve" smooth="yes"/>
			<point x="208" y="63"/>
			<point x="150" y="95"/>
			<point x="101" y="140" type="curve"/>
			<point x="101" y="140"/>
			<point x="83" y="122"/>
			<point x="73" y="100" type="curve" smooth="yes"/>
			<point x="62" y="77"/>
			<point x="60" y="53"/>
			<point x="60" y="53" type="curve"/>
			<point x="102" y="14"/>
			<point x="190" y="-15"/>
		</contour>
		<contour>
			<point x="73" y="396" type="line"/>
			<point x="73" y="396"/>
			<point x="138" y="421"/>
			<point x="162" y="434" type="curve"/>
			<point x="202" y="661" type="line"/>
			<point x="317" y="661" type="line" smooth="yes"/>
			<point x="434" y="661"/>
			<point x="493" y="652"/>
			<point x="493" y="652" type="curve"/>
			<point x="499" y="671"/>
			<point x="499" y="730"/>
			<point x="491" y="754" type="curve"/>
			<point x="491" y="754"/>
			<point x="397" y="750"/>
			<point x="356" y="750" type="curve" smooth="yes"/>
			<point x="126" y="750" type="line"/>
			<point x="126" y="742" type="line"/>
		</contour>
	</outline>
</glyph>
<glyph name="seven" format="2">
	<advance width="476"/>
	<unicode hex="0037"/>
	<outline>
		<contour>
			<point x="114" y="0" type="curve"/>
			<point x="225" y="0" type="line"/>
			<point x="290" y="243"/>
			<point x="372" y="491"/>
			<point x="456" y="742" type="curve"/>
			<point x="456" y="750" type="line"/>
			<point x="186" y="750" type="line" smooth="yes"/>
			<point x="105" y="750"/>
			<point x="31" y="754"/>
			<point x="31" y="754" type="curve"/>
			<point x="23" y="730"/>
			<point x="23" y="671"/>
			<point x="29" y="652" type="curve"/>
			<point x="29" y="652"/>
			<point x="98" y="666"/>
			<point x="198" y="666" type="curve" smooth="yes"/>
			<point x="334" y="666" type="line"/>
			<point x="261" y="444"/>
			<point x="187" y="195"/>
		</contour>
	</outline>
</glyph>
<glyph name="nine" format="2">
	<advance width="619"/>
	<unicode hex="0039"/>
	<outline>
		<contour>
			<point x="262" y="-16" type="curve" smooth="yes"/>
			<point x="448" y="-16"/>
			<point x="559" y="116"/>
			<point x="559" y="422" type="curve" smooth="yes"/>
			<point x="559" y="673"/>
			<point x="448" y="766"/>
			<point x="300" y="766" type="curve" smooth="yes"/>
			<point x="167" y="766"/>
			<point x="60" y="665"/>
			<point x="60" y="515" type="curve" smooth="yes"/>
			<point x="60" y="344"/>
			<point x="162" y="255"/>
			<point x="296" y="255" type="curve" smooth="yes"/>
			<point x="459" y="255"/>
			<point x="500" y="417"/>
			<point x="500" y="417" type="curve"/>
			<point x="456" y="397" type="line"/>
			<point x="456" y="185"/>
			<point x="410" y="65"/>
			<point x="254" y="65" type="curve" smooth="yes"/>
			<point x="175" y="65"/>
			<point x="116" y="123"/>
			<point x="116" y="123" type="curve"/>
			<point x="93" y="116"/>
			<point x="69" y="77"/>
			<point x="69" y="52" type="curve"/>
			<point x="69" y="52"/>
			<point x="124" y="-16"/>
		</contour>
		<contour>
			<point x="301" y="335" type="curve" smooth="yes"/>
			<point x="223" y="335"/>
			<point x="165" y="382"/>
			<point x="165" y="515" type="curve" smooth="yes"/>
			<point x="165" y="635"/>
			<point x="238" y="686"/>
			<point x="306" y="686" type="curve" smooth="yes"/>
			<point x="401" y="686"/>
			<point x="454" y="626"/>
			<point x="454" y="508" type="curve" smooth="yes"/>
			<point x="454" y="388"/>
			<point x="393" y="335"/>
		</contour>
	</outline>
</glyph>
<glyph name="at" format="2">
	<advance width="927"/>
	<unicode hex="0040"/>
	<outline>
		<contour>
			<point x="444" y="-179" type="curve" smooth="yes"/>
			<point x="593" y="-179"/>
			<point x="666" y="-113"/>
			<point x="666" y="-113" type="curve"/>
			<point x="668" y="-87"/>
			<point x="641" y="-52"/>
			<point x="620" y="-47" type="curve"/>
			<point x="620" y="-47"/>
			<point x="545" y="-105"/>
			<point x="444" y="-105" type="curve" smooth="yes"/>
			<point x="311" y="-105"/>
			<point x="120" y="-10"/>
			<point x="120" y="265" type="curve" smooth="yes"/>
			<point x="120" y="436"/>
			<point x="218" y="635"/>
			<point x="473" y="635" type="curve" smooth="yes"/>
			<point x="697" y="635"/>
			<point x="807" y="478"/>
			<point x="807" y="305" type="curve" smooth="yes"/>
			<point x="807" y="147"/>
			<point x="750" y="96"/>
			<point x="714" y="96" type="curve" smooth="yes"/>
			<point x="667" y="96"/>
			<point x="657" y="126"/>
			<point x="657" y="205" type="curve" smooth="yes"/>
			<point x="657" y="496" type="line"/>
			<point x="601" y="496" type="line"/>
			<point x="567" y="434" type="line"/>
			<point x="567" y="205" type="line" smooth="yes"/>
			<point x="567" y="106"/>
			<point x="606" y="35"/>
			<point x="710" y="35" type="curve" smooth="yes"/>
			<point x="786" y="35"/>
			<point x="887" y="114"/>
			<point x="887" y="308" type="curve" smooth="yes"/>
			<point x="887" y="529"/>
			<point x="725" y="709"/>
			<point x="473" y="709" type="curve" smooth="yes"/>
			<point x="205" y="709"/>
			<point x="40" y="514"/>
			<point x="40" y="265" type="curve" smooth="yes"/>
			<point x="40" y="-42"/>
			<point x="236" y="-179"/>
		</contour>
		<contour>
			<point x="438" y="16" type="curve" smooth="yes"/>
			<point x="566" y="16"/>
			<point x="626" y="132"/>
			<point x="626" y="255" type="curve"/>
			<point x="567" y="247" type="line"/>
			<point x="567" y="160"/>
			<point x="503" y="96"/>
			<point x="446" y="96" type="curve" smooth="yes"/>
			<point x="377" y="96"/>
			<point x="329" y="158"/>
			<point x="329" y="267" type="curve" smooth="yes"/>
			<point x="329" y="382"/>
			<point x="378" y="437"/>
			<point x="446" y="437" type="curve" smooth="yes"/>
			<point x="521" y="437"/>
			<point x="567" y="358"/>
			<point x="567" y="293" type="curve"/>
			<point x="628" y="301" type="line"/>
			<point x="628" y="377"/>
			<point x="590" y="518"/>
			<point x="439" y="518" type="curve" smooth="yes"/>
			<point x="326" y="518"/>
			<point x="231" y="422"/>
			<point x="231" y="267" type="curve" smooth="yes"/>
			<point x="231" y="99"/>
			<point x="339" y="16"/>
		</contour>
	</outline>
</glyph>
<glyph name="A" format="2">
	<advance width="619"/>
	<unicode hex="0041"/>
	<anchor x="324" y="750" name="top"/>
	<anchor x="324" y="0" name="bottom"/>
	<anchor x="580" y="10" name="ogonek"/>
	<outline>
		<contour>
			<point x="493" y="0" type="curve"/>
			<point x="604" y="0" type="line"/>
			<point x="555" y="128"/>
			<point x="429" y="520"/>
			<point x="361" y="750" type="curve"/>
			<point x="269" y="750" type="line"/>
			<point x="344" y="520"/>
			<point x="462" y="135"/>
		</contour>
		<contour>
			<point x="15" y="0" type="curve"/>
			<point x="126" y="0" type="line"/>
			<point x="157" y="135"/>
			<point x="275" y="520"/>
			<point x="350" y="750" type="curve"/>
			<point x="258" y="750" type="line"/>
			<point x="190" y="520"/>
			<point x="64" y="128"/>
		</contour>
		<contour>
			<point x="132" y="240" type="curve"/>
			<point x="152" y="242"/>
			<point x="309" y="242"/>
			<point x="309" y="242" type="curve"/>
			<point x="309" y="242"/>
			<point x="466" y="242"/>
			<point x="486" y="240" type="curve"/>
			<point x="488" y="288" type="line" smooth="yes"/>
			<point x="489" y="303"/>
			<point x="487" y="316"/>
			<point x="486" y="328" type="curve"/>
			<point x="486" y="328"/>
			<point x="453" y="321"/>
			<point x="375" y="321" type="curve" smooth="yes"/>
			<point x="224" y="321" type="line" smooth="yes"/>
			<point x="176" y="321"/>
			<point x="132" y="328"/>
			<point x="132" y="328" type="curve"/>
			<point x="131" y="316"/>
			<point x="131" y="303"/>
			<point x="131" y="288" type="curve" smooth="yes"/>
			<point x="131" y="273"/>
			<point x="131" y="257"/>
		</contour>
	</outline>
</glyph>
<glyph name="B" format="2">
	<advance width="590"/>
	<unicode hex="0042"/>
	<anchor x="295" y="750" name="top"/>
	<anchor x="295" y="0" name="bottom"/>
	<anchor x="295" y="375" name="center"/>
	<outline>
		<contour>
			<point x="242" y="-15" type="curve" smooth="yes"/>
			<point x="412" y="-15"/>
			<point x="540" y="56"/>
			<point x="540" y="216" type="curve" smooth="yes"/>
			<point x="540" y="358"/>
			<point x="419" y="440"/>
			<point x="221" y="440" type="curve" smooth="yes"/>
			<point x="146" y="440" type="line"/>
			<point x="146" y="364" type="line"/>
			<point x="264" y="364" type="line" smooth="yes"/>
			<point x="374" y="364"/>
			<point x="435" y="324"/>
			<point x="435" y="222" type="curve" smooth="yes"/>
			<point x="435" y="116"/>
			<point x="372" y="64"/>
			<point x="254" y="64" type="curve" smooth="yes"/>
			<point x="119" y="64" type="line"/>
			<point x="73" y="0" type="line"/>
			<point x="73" y="0"/>
			<point x="126" y="-15"/>
		</contour>
		<contour>
			<point x="73" y="0" type="curve"/>
			<point x="182" y="0" type="line"/>
			<point x="182" y="0"/>
			<point x="175" y="137"/>
			<point x="175" y="335" type="curve" smooth="yes"/>
			<point x="175" y="415" type="line" smooth="yes"/>
			<point x="175" y="616"/>
			<point x="185" y="750"/>
			<point x="185" y="750" type="curve"/>
			<point x="70" y="750" type="line"/>
			<point x="70" y="750"/>
			<point x="80" y="616"/>
			<point x="80" y="415" type="curve" smooth="yes"/>
			<point x="80" y="335" type="line" smooth="yes"/>
			<point x="80" y="137"/>
			<point x="73" y="0"/>
		</contour>
		<contour>
			<point x="202" y="364" type="curve" smooth="yes"/>
			<point x="275" y="364"/>
			<point x="489" y="375"/>
			<point x="489" y="556" type="curve" smooth="yes"/>
			<point x="489" y="687"/>
			<point x="391" y="766"/>
			<point x="227" y="766" type="curve" smooth="yes"/>
			<point x="120" y="766"/>
			<point x="70" y="750"/>
			<point x="70" y="750" type="curve"/>
			<point x="136" y="686" type="line"/>
			<point x="222" y="686" type="line" smooth="yes"/>
			<point x="337" y="686"/>
			<point x="384" y="648"/>
			<point x="384" y="556" type="curve" smooth="yes"/>
			<point x="384" y="468"/>
			<point x="324" y="440"/>
			<point x="240" y="440" type="curve" smooth="yes"/>
			<point x="135" y="440" type="line"/>
			<point x="106" y="408" type="line"/>
			<point x="106" y="408"/>
			<point x="130" y="364"/>
		</contour>
	</outline>
</glyph>
<glyph name="E" format="2">
	<advance width="546"/>
	<unicode hex="0045"/>
	<anchor x="257" y="750" name="top"/>
	<anchor x="257" y="0" name="bottom"/>
	<anchor x="456" y="10" name="ogonek"/>
	<anchor x="28" y="750" name="topleft"/>
	<outline>
		<contour>
			<point x="71" y="0" type="curve"/>
			<point x="180" y="0" type="line"/>
			<point x="180" y="0"/>
			<point x="173" y="137"/>
			<point x="173" y="335" type="curve" smooth="yes"/>
			<point x="173" y="415" type="line" smooth="yes"/>
			<point x="173" y="616"/>
			<point x="183" y="750"/>
			<point x="183" y="750" type="curve"/>
			<point x="68" y="750" type="line"/>
			<point x="68" y="750"/>
			<point x="78" y="616"/>
			<point x="78" y="415" type="curve" smooth="yes"/>
			<point x="78" y="335" type="line" smooth="yes"/>
			<point x="78" y="137"/>
			<point x="71" y="0"/>
		</contour>
		<contour>
			<point x="480" y="-4" type="curve"/>
			<point x="488" y="20"/>
			<point x="488" y="79"/>
			<point x="482" y="98" type="curve"/>
			<point x="482" y="98"/>
			<point x="443" y="78"/>
			<point x="266" y="78" type="curve" smooth="yes"/>
			<point x="163" y="78" type="line"/>
			<point x="148" y="0" type="line"/>
			<point x="305" y="0" type="line" smooth="yes"/>
			<point x="406" y="0"/>
			<point x="480" y="-4"/>
		</contour>
		<contour>
			<point x="428" y="338" type="curve"/>
			<point x="433" y="362"/>
			<point x="434" y="404"/>
			<point x="428" y="426" type="curve"/>
			<point x="428" y="426"/>
			<point x="358" y="420"/>
			<point x="240" y="420" type="curve" smooth="yes"/>
			<point x="152" y="420" type="line"/>
			<point x="154" y="343" type="line"/>
			<point x="245" y="343" type="line" smooth="yes"/>
			<point x="381" y="343"/>
			<point x="428" y="338"/>
		</contour>
		<contour>
			<point x="470" y="652" type="curve"/>
			<point x="476" y="671"/>
			<point x="476" y="730"/>
			<point x="468" y="754" type="curve"/>
			<point x="468" y="754"/>
			<point x="384" y="750"/>
			<point x="293" y="750" type="curve" smooth="yes"/>
			<point x="136" y="750" type="line"/>
			<point x="151" y="672" type="line"/>
			<point x="254" y="672" type="line" smooth="yes"/>
			<point x="431" y="672"/>
			<point x="470" y="652"/>
		</contour>
	</outline>
</glyph>
<glyph name="F" format="2">
	<advance width="504"/>
	<unicode hex="0046"/>
	<anchor x="249" y="750" name="top"/>
	<anchor x="249" y="0" name="bottom"/>
	<outline>
		<contour>
			<point x="71" y="0" type="curve"/>
			<point x="189" y="0" type="line"/>
			<point x="189" y="0"/>
			<point x="173" y="137"/>
			<point x="173" y="335" type="curve" smooth="yes"/>
			<point x="173" y="415" type="line" smooth="yes"/>
			<point x="173" y="616"/>
			<point x="183" y="750"/>
			<point x="183" y="750" type="curve"/>
			<point x="68" y="750" type="line"/>
			<point x="68" y="750"/>
			<point x="78" y="616"/>
			<point x="78" y="415" type="curve" smooth="yes"/>
			<point x="78" y="335" type="line" smooth="yes"/>
			<point x="78" y="137"/>
			<point x="71" y="0"/>
		</contour>
		<contour>
			<point x="397" y="338" type="curve"/>
			<point x="402" y="362"/>
			<point x="403" y="404"/>
			<point x="397" y="426" type="curve"/>
			<point x="397" y="426"/>
			<point x="327" y="420"/>
			<point x="219" y="420" type="curve" smooth="yes"/>
			<point x="138" y="420" type="line"/>
			<point x="138" y="343" type="line"/>
			<point x="224" y="343" type="line" smooth="yes"/>
			<point x="350" y="343"/>
			<point x="397" y="338"/>
		</contour>
		<contour>
			<point x="460" y="652" type="curve"/>
			<point x="466" y="671"/>
			<point x="466" y="730"/>
			<point x="458" y="754" type="curve"/>
			<point x="458" y="754"/>
			<point x="384" y="750"/>
			<point x="303" y="750" type="curve" smooth="yes"/>
			<point x="136" y="750" type="line"/>
			<point x="151" y="672" type="line"/>
			<point x="264" y="672" type="line" smooth="yes"/>
			<point x="421" y="672"/>
			<point x="460" y="652"/>
		</contour>
	</outline>
</glyph>
<glyph name="I" format="2">
	<advance width="255"/>
	<unicode hex="0049"/>
	<anchor x="128" y="750" name="top"/>
	<anchor x="128" y="0" name="bottom"/>
	<anchor x="220" y="10" name="ogonek"/>
	<anchor x="32" y="750" name="topleft"/>
	<outline>
		<contour>
			<point x="73" y="0" type="curve"/>
			<point x="182" y="0" type="line"/>
			<point x="182" y="0"/>
			<point x="175" y="137"/>
			<point x="175" y="335" type="curve" smooth="yes"/>
			<point x="175" y="415" type="line" smooth="yes"/>
			<point x="175" y="616"/>
			<point x="185" y="750"/>
			<point x="185" y="750" type="curve"/>
			<point x="70" y="750" type="line"/>
			<point x="70" y="750"/>
			<point x="80" y="616"/>
			<point x="80" y="415" type="curve" smooth="yes"/>
			<point x="80" y="335" type="line" smooth="yes"/>
			<point x="80" y="137"/>
			<point x="73" y="0"/>
		</contour>
	</outline>
</glyph>
<glyph name="P" format="2">
	<advance width="570"/>
	<unicode hex="0050"/>
	<anchor x="295" y="750" name="top"/>
	<anchor x="295" y="0" name="bottom"/>
	<outline>
		<contour>
			<point x="249" y="285" type="curve" smooth="yes"/>
			<point x="426" y="285"/>
			<point x="530" y="382"/>
			<point x="530" y="524" type="curve" smooth="yes"/>
			<point x="530" y="684"/>
			<point x="406" y="765"/>
			<point x="227" y="765" type="curve" smooth="yes"/>
			<point x="111" y="765"/>
			<point x="68" y="750"/>
			<point x="68" y="750" type="curve"/>
			<point x="114" y="686" type="line"/>
			<point x="222" y="686" type="line" smooth="yes"/>
			<point x="351" y="686"/>
			<point x="425" y="624"/>
			<point x="425" y="518" type="curve" smooth="yes"/>
			<point x="425" y="416"/>
			<point x="342" y="361"/>
			<point x="244" y="361" type="curve" smooth="yes"/>
			<point x="196" y="361"/>
			<point x="141" y="381"/>
			<point x="141" y="381" type="curve"/>
			<point x="141" y="305" type="line"/>
			<point x="141" y="305"/>
			<point x="158" y="285"/>
		</contour>
		<contour>
			<point x="71" y="0" type="curve"/>
			<point x="180" y="0" type="line"/>
			<point x="180" y="0"/>
			<point x="173" y="137"/>
			<point x="173" y="335" type="curve" smooth="yes"/>
			<point x="173" y="415" type="line" smooth="yes"/>
			<point x="173" y="616"/>
			<point x="183" y="750"/>
			<point x="183" y="750" type="curve"/>
			<point x="68" y="750" type="line"/>
			<point x="68" y="750"/>
			<point x="78" y="616"/>
			<point x="78" y="415" type="curve" smooth="yes"/>
			<point x="78" y="335" type="line" smooth="yes"/>
			<point x="78" y="137"/>
			<point x="71" y="0"/>
		</contour>
	</outline>
</glyph>
<glyph name="Q" format="2">
	<advance width="782"/>
	<unicode hex="0051"/>
	<anchor x="374" y="750" name="top"/>
	<anchor x="374" y="0" name="bottom"/>
	<outline>
		<contour>
			<point x="375" y="-16" type="curve" smooth="yes"/>
			<point x="533" y="-16"/>
			<point x="695" y="77"/>
			<point x="695" y="375" type="curve" smooth="yes"/>
			<point x="695" y="673"/>
			<point x="533" y="766"/>
			<point x="375" y="766" type="curve" smooth="yes"/>
			<point x="217" y="766"/>
			<point x="50" y="673"/>
			<point x="50" y="375" type="curve" smooth="yes"/>
			<point x="50" y="77"/>
			<point x="217" y="-16"/>
		</contour>
		<contour>
			<point x="562" y="-215" type="curve" smooth="yes"/>
			<point x="702" y="-215"/>
			<point x="739" y="-168"/>
			<point x="739" y="-168" type="curve"/>
			<point x="748" y="-140"/>
			<point x="738" y="-93"/>
			<point x="715" y="-83" type="curve"/>
			<point x="715" y="-83"/>
			<point x="655" y="-133"/>
			<point x="558" y="-133" type="curve" smooth="yes"/>
			<point x="410" y="-133"/>
			<point x="413" y="0"/>
			<point x="413" y="0" type="curve"/>
			<point x="366" y="46" type="line"/>
			<point x="366" y="46"/>
			<point x="341" y="21"/>
			<point x="341" y="-30" type="curve" smooth="yes"/>
			<point x="341" y="-125"/>
			<point x="424" y="-215"/>
		</contour>
		<contour>
			<point x="375" y="64" type="curve" smooth="yes"/>
			<point x="272" y="64"/>
			<point x="155" y="136"/>
			<point x="155" y="375" type="curve" smooth="yes"/>
			<point x="155" y="614"/>
			<point x="272" y="686"/>
			<point x="375" y="686" type="curve" smooth="yes"/>
			<point x="478" y="686"/>
			<point x="590" y="614"/>
			<point x="590" y="375" type="curve" smooth="yes"/>
			<point x="590" y="136"/>
			<point x="478" y="64"/>
		</contour>
	</outline>
</glyph>
<glyph name="R" format="2">
	<advance width="596"/>
	<unicode hex="0052"/>
	<anchor x="303" y="750" name="top"/>
	<anchor x="303" y="0" name="bottom"/>
	<outline>
		<contour>
			<point x="203" y="300" type="line"/>
			<point x="215" y="300" type="line" smooth="yes"/>
			<point x="447" y="300"/>
			<point x="530" y="411"/>
			<point x="530" y="543" type="curve" smooth="yes"/>
			<point x="530" y="695"/>
			<point x="414" y="765"/>
			<point x="229" y="765" type="curve" smooth="yes"/>
			<point x="144" y="765"/>
			<point x="68" y="750"/>
			<point x="68" y="750" type="curve"/>
			<point x="114" y="685" type="line"/>
			<point x="236" y="685" type="line" smooth="yes"/>
			<point x="367" y="685"/>
			<point x="430" y="619"/>
			<point x="430" y="531" type="curve" smooth="yes"/>
			<point x="430" y="451"/>
			<point x="374" y="369"/>
			<point x="251" y="369" type="curve" smooth="yes"/>
			<point x="228" y="369" type="line"/>
		</contour>
		<contour>
			<point x="71" y="0" type="curve"/>
			<point x="180" y="0" type="line"/>
			<point x="180" y="0"/>
			<point x="173" y="137"/>
			<point x="173" y="335" type="curve" smooth="yes"/>
			<point x="173" y="750" type="line"/>
			<point x="68" y="750" type="line"/>
			<point x="68" y="750"/>
			<point x="78" y="615"/>
			<point x="78" y="415" type="curve" smooth="yes"/>
			<point x="78" y="335" type="line" smooth="yes"/>
			<point x="78" y="137"/>
			<point x="71" y="0"/>
		</contour>
		<contour>
			<point x="508" y="-19" type="curve"/>
			<point x="537" y="-5"/>
			<point x="554" y="21"/>
			<point x="561" y="59" type="curve"/>
			<point x="424" y="106"/>
			<point x="329" y="230"/>
			<point x="276" y="345" type="curve"/>
			<point x="203" y="300" type="line"/>
			<point x="262" y="174"/>
			<point x="368" y="30"/>
		</contour>
	</outline>
</glyph>
<glyph name="T" format="2">
	<advance width="583"/>
	<unicode hex="0054"/>
	<anchor x="292" y="750" name="top"/>
	<anchor x="292" y="0" name="bottom"/>
	<anchor x="292" y="375" name="center"/>
	<outline>
		<contour>
			<point x="238" y="-1" type="curve"/>
			<point x="347" y="-1" type="line"/>
			<point x="347" y="-1"/>
			<point x="340" y="137"/>
			<point x="340" y="335" type="curve" smooth="yes"/>
			<point x="340" y="415" type="line" smooth="yes"/>
			<point x="340" y="615"/>
			<point x="350" y="750"/>
			<point x="350" y="750" type="curve"/>
			<point x="235" y="750" type="line"/>
			<point x="235" y="750"/>
			<point x="245" y="615"/>
			<point x="245" y="415" type="curve" smooth="yes"/>
			<point x="245" y="335" type="line" smooth="yes"/>
			<point x="245" y="137"/>
			<point x="238" y="-1"/>
		</contour>
		<contour>
			<point x="32" y="664" type="curve"/>
			<point x="83" y="671"/>
			<point x="156" y="675"/>
			<point x="292" y="675" type="curve" smooth="yes"/>
			<point x="428" y="675"/>
			<point x="500" y="671"/>
			<point x="551" y="664" type="curve"/>
			<point x="553" y="678"/>
			<point x="553" y="693"/>
			<point x="553" y="708" type="curve" smooth="yes"/>
			<point x="553" y="724"/>
			<point x="553" y="740"/>
			<point x="551" y="757" type="curve"/>
			<point x="484" y="752"/>
			<point x="422" y="750"/>
			<point x="292" y="750" type="curve" smooth="yes"/>
			<point x="162" y="750"/>
			<point x="99" y="752"/>
			<point x="32" y="757" type="curve"/>
			<point x="30" y="740"/>
			<point x="30" y="724"/>
			<point x="30" y="708" type="curve" smooth="yes"/>
			<point x="30" y="693"/>
			<point x="30" y="678"/>
		</contour>
	</outline>
</glyph>
<glyph name="U" format="2">
	<advance width="659"/>
	<unicode hex="0055"/>
	<anchor x="332" y="750" name="top"/>
	<anchor x="332" y="0" name="bottom"/>
	<anchor x="588" y="10" name="ogonek"/>
	<anchor x="632" y="750" name="topright"/>
	<outline>
		<contour>
			<point x="334" y="-16" type="curve" smooth="yes"/>
			<point x="488" y="-16"/>
			<point x="595" y="77"/>
			<point x="595" y="338" type="curve" smooth="yes"/>
			<point x="595" y="455" type="line" smooth="yes"/>
			<point x="595" y="616"/>
			<point x="601" y="750"/>
			<point x="601" y="750" type="curve"/>
			<point x="489" y="750" type="line"/>
			<point x="489" y="750"/>
			<point x="500" y="616"/>
			<point x="500" y="455" type="curve" smooth="yes"/>
			<point x="500" y="338" type="line" smooth="yes"/>
			<point x="500" y="146"/>
			<point x="442" y="67"/>
			<point x="334" y="67" type="curve" smooth="yes"/>
			<point x="223" y="67"/>
			<point x="163" y="146"/>
			<point x="163" y="338" type="curve" smooth="yes"/>
			<point x="163" y="455" type="line" smooth="yes"/>
			<point x="163" y="616"/>
			<point x="173" y="750"/>
			<point x="173" y="750" type="curve"/>
			<point x="58" y="750" type="line" smooth="yes"/>
			<point x="61" y="750"/>
			<point x="68" y="616"/>
			<point x="68" y="455" type="curve" smooth="yes"/>
			<point x="68" y="338" type="line" smooth="yes"/>
			<point x="68" y="77"/>
			<point x="181" y="-16"/>
		</contour>
	</outline>
</glyph>
<glyph name="V" format="2">
	<advance width="632"/>
	<unicode hex="0056"/>
	<anchor x="311" y="750" name="top"/>
	<anchor x="311" y="0" name="bottom"/>
	<outline>
		<contour>
			<point x="274" y="0" type="line"/>
			<point x="377" y="0" type="line"/>
			<point x="612" y="750" type="line"/>
			<point x="612" y="750"/>
			<point x="599" y="760"/>
			<point x="563" y="760" type="curve" smooth="yes"/>
			<point x="525" y="760"/>
			<point x="504" y="750"/>
			<point x="504" y="750" type="curve"/>
			<point x="391" y="375" type="line"/>
			<point x="311" y="67" type="line"/>
			<point x="280" y="121" type="line"/>
		</contour>
		<contour>
			<point x="255" y="0" type="line"/>
			<point x="358" y="0" type="line"/>
			<point x="352" y="121" type="line"/>
			<point x="321" y="67" type="line"/>
			<point x="241" y="375" type="line"/>
			<point x="128" y="750" type="line"/>
			<point x="128" y="750"/>
			<point x="107" y="760"/>
			<point x="69" y="760" type="curve" smooth="yes"/>
			<point x="33" y="760"/>
			<point x="20" y="750"/>
			<point x="20" y="750" type="curve"/>
		</contour>
	</outline>
</glyph>
<glyph name="Z" format="2">
	<advance width="568"/>
	<unicode hex="005A"/>
	<anchor x="284" y="750" name="top"/>
	<anchor x="284" y="0" name="bottom"/>
	<anchor x="284" y="375" name="center"/>
	<outline>
		<contour>
			<point x="546" y="-4" type="curve"/>
			<point x="555" y="15"/>
			<point x="556" y="72"/>
			<point x="548" y="98" type="curve"/>
			<point x="548" y="98"/>
			<point x="485" y="84"/>
			<point x="303" y="84" type="curve" smooth="yes"/>
			<point x="170" y="84" type="line"/>
			<point x="249" y="208" type="line"/>
			<point x="543" y="734" type="line"/>
			<point x="543" y="750" type="line"/>
			<point x="212" y="750" type="line" smooth="yes"/>
			<point x="152" y="750"/>
			<point x="52" y="754"/>
			<point x="52" y="754" type="curve"/>
			<point x="44" y="730"/>
			<point x="43" y="678"/>
			<point x="54" y="652" type="curve"/>
			<point x="54" y="652"/>
			<point x="104" y="666"/>
			<point x="277" y="666" type="curve" smooth="yes"/>
			<point x="397" y="666" type="line"/>
			<point x="313" y="522" type="line"/>
			<point x="30" y="18" type="line"/>
			<point x="30" y="0" type="line"/>
			<point x="391" y="0" type="line" smooth="yes"/>
			<point x="435" y="0"/>
			<point x="546" y="-4"/>
		</contour>
	</outline>
</glyph>
<glyph name="underscore" format="2">
	<advance width="600"/>
	<unicode hex="005F"/>
	<outline>
		<contour>
			<point x="30" y="-156" type="curve"/>
			<point x="30" y="-156"/>
			<point x="191" y="-154"/>
			<point x="298" y="-154" type="curve" smooth="yes"/>
			<point x="408" y="-154"/>
			<point x="567" y="-156"/>
			<point x="567" y="-156" type="curve"/>
			<point x="567" y="-156"/>
			<point x="569" y="-128"/>
			<point x="569" y="-112" type="curve" smooth="yes"/>
			<point x="569" y="-98"/>
			<point x="567" y="-71"/>
			<point x="567" y="-71" type="curve"/>
			<point x="567" y="-71"/>
			<point x="412" y="-73"/>
			<point x="298" y="-73" type="curve" smooth="yes"/>
			<point x="191" y="-73"/>
			<point x="30" y="-71"/>
			<point x="30" y="-71" type="curve"/>
			<point x="30" y="-71"/>
			<point x="28" y="-100"/>
			<point x="28" y="-112" type="curve" smooth="yes"/>
			<point x="28" y="-127"/>
			<point x="30" y="-156"/>
		</contour>
	</outline>
</glyph>
<glyph name="a" format="2">
	<advance width="543"/>
	<unicode hex="0061"/>
	<anchor x="253" y="586" name="Top"/>
	<anchor x="243" y="550" name="top"/>
	<anchor x="278" y="0" name="bottom"/>
	<anchor x="488" y="10" name="ogonek"/>
	<outline>
		<contour>
			<point x="402" y="-18" type="curve"/>
			<point x="441" y="-13"/>
			<point x="478" y="3"/>
			<point x="498" y="23" type="curve"/>
			<point x="479" y="55"/>
			<point x="466" y="113"/>
			<point x="466" y="163" type="curve" smooth="yes"/>
			<point x="466" y="361" type="line" smooth="yes"/>
			<point x="466" y="500"/>
			<point x="401" y="566"/>
			<point x="264" y="566" type="curve" smooth="yes"/>
			<point x="183" y="566"/>
			<point x="116" y="551"/>
			<point x="70" y="529" type="curve"/>
			<point x="65" y="512"/>
			<point x="80" y="452"/>
			<point x="92" y="441" type="curve"/>
			<point x="130" y="467"/>
			<point x="186" y="489"/>
			<point x="243" y="489" type="curve" smooth="yes"/>
			<point x="330" y="489"/>
			<point x="371" y="433"/>
			<point x="371" y="345" type="curve" smooth="yes"/>
			<point x="371" y="273" type="line"/>
			<point x="372" y="273" type="line"/>
			<point x="372" y="120" type="line" smooth="yes"/>
			<point x="372" y="69"/>
			<point x="386" y="5"/>
		</contour>
		<contour>
			<point x="210" y="-16" type="curve" smooth="yes"/>
			<point x="312" y="-16"/>
			<point x="401" y="68"/>
			<point x="401" y="165" type="curve"/>
			<point x="372" y="206" type="line"/>
			<point x="372" y="128"/>
			<point x="314" y="69"/>
			<point x="235" y="69" type="curve" smooth="yes"/>
			<point x="181" y="69"/>
			<point x="151" y="100"/>
			<point x="151" y="154" type="curve" smooth="yes"/>
			<point x="151" y="228"/>
			<point x="207" y="265"/>
			<point x="318" y="265" type="curve" smooth="yes"/>
			<point x="350" y="265"/>
			<point x="379" y="262"/>
			<point x="401" y="260" type="curve"/>
			<point x="401" y="327" type="line"/>
			<point x="381" y="330"/>
			<point x="341" y="333"/>
			<point x="306" y="333" type="curve" smooth="yes"/>
			<point x="136" y="333"/>
			<point x="55" y="275"/>
			<point x="55" y="154" type="curve" smooth="yes"/>
			<point x="55" y="51"/>
			<point x="116" y="-16"/>
		</contour>
	</outline>
</glyph>
<glyph name="d" format="2">
	<advance width="579"/>
	<unicode hex="0064"/>
	<anchor x="286" y="800" name="top"/>
	<anchor x="286" y="0" name="bottom"/>
	<anchor x="286" y="275" name="center"/>
	<anchor x="547" y="800" name="topright"/>
	<outline>
		<contour>
			<point x="279" y="-16" type="curve" smooth="yes"/>
			<point x="407" y="-16"/>
			<point x="477" y="100"/>
			<point x="477" y="223" type="curve"/>
			<point x="418" y="215" type="line"/>
			<point x="418" y="128"/>
			<point x="354" y="64"/>
			<point x="286" y="64" type="curve" smooth="yes"/>
			<point x="217" y="64"/>
			<point x="143" y="136"/>
			<point x="143" y="275" type="curve" smooth="yes"/>
			<point x="143" y="391"/>
			<point x="189" y="485"/>
			<point x="287" y="485" type="curve" smooth="yes"/>
			<point x="378" y="485"/>
			<point x="418" y="406"/>
			<point x="418" y="341" type="curve"/>
			<point x="479" y="349" type="line"/>
			<point x="479" y="425"/>
			<point x="427" y="566"/>
			<point x="276" y="566" type="curve" smooth="yes"/>
			<point x="145" y="566"/>
			<point x="45" y="460"/>
			<point x="45" y="275" type="curve" smooth="yes"/>
			<point x="45" y="77"/>
			<point x="160" y="-16"/>
		</contour>
		<contour>
			<point x="452" y="0" type="line"/>
			<point x="508" y="0" type="line"/>
			<point x="509" y="577" type="line" smooth="yes"/>
			<point x="509" y="701"/>
			<point x="508" y="794"/>
			<point x="490" y="812" type="curve"/>
			<point x="456" y="810"/>
			<point x="416" y="796"/>
			<point x="395" y="772" type="curve"/>
			<point x="395" y="772"/>
			<point x="418" y="710"/>
			<point x="418" y="577" type="curve" smooth="yes"/>
			<point x="418" y="65" type="line"/>
		</contour>
	</outline>
</glyph>
<glyph name="e" format="2">
	<advance width="539"/>
	<unicode hex="0065"/>
	<anchor x="293" y="566" name="top"/>
	<anchor x="270" y="-14" name="bottom"/>
	<anchor x="481" y="10" name="ogonek"/>
	<outline>
		<contour>
			<point x="297" y="-15" type="curve" smooth="yes"/>
			<point x="419" y="-15"/>
			<point x="483" y="32"/>
			<point x="483" y="32" type="curve"/>
			<point x="483" y="86"/>
			<point x="451" y="113"/>
			<point x="451" y="113" type="curve"/>
			<point x="451" y="113"/>
			<point x="375" y="63"/>
			<point x="303" y="63" type="curve" smooth="yes"/>
			<point x="211" y="63"/>
			<point x="144" y="144"/>
			<point x="144" y="275" type="curve" smooth="yes"/>
			<point x="144" y="443"/>
			<point x="205" y="488"/>
			<point x="283" y="488" type="curve" smooth="yes"/>
			<point x="377" y="488"/>
			<point x="401" y="422"/>
			<point x="401" y="336" type="curve"/>
			<point x="125" y="336" type="line"/>
			<point x="125" y="258" type="line"/>
			<point x="466" y="258" type="line"/>
			<point x="466" y="258"/>
			<point x="494" y="291"/>
			<point x="494" y="356" type="curve" smooth="yes"/>
			<point x="494" y="478"/>
			<point x="418" y="566"/>
			<point x="293" y="566" type="curve" smooth="yes"/>
			<point x="156" y="566"/>
			<point x="47" y="468"/>
			<point x="45" y="275" type="curve" smooth="yes"/>
			<point x="43" y="86"/>
			<point x="144" y="-15"/>
		</contour>
	</outline>
</glyph>
<glyph name="k" format="2">
	<advance width="536"/>
	<unicode hex="006B"/>
	<anchor x="284" y="800" name="top"/>
	<anchor x="284" y="0" name="bottom"/>
	<outline>
		<contour>
			<point x="414" y="0" type="curve"/>
			<point x="526" y="0" type="line"/>
			<point x="526" y="0"/>
			<point x="396" y="188"/>
			<point x="309" y="316" type="curve"/>
			<point x="515" y="550" type="line"/>
			<point x="515" y="550"/>
			<point x="493" y="557"/>
			<point x="457" y="557" type="curve" smooth="yes"/>
			<point x="427" y="557"/>
			<point x="395" y="550"/>
			<point x="395" y="550" type="curve"/>
			<point x="353" y="498"/>
			<point x="307" y="437"/>
			<point x="241" y="363" type="curve"/>
			<point x="148" y="363" type="line"/>
			<point x="148" y="273" type="line"/>
			<point x="237" y="273" type="line"/>
			<point x="308" y="169"/>
			<point x="414" y="0"/>
		</contour>
		<contour>
			<point x="68" y="0" type="curve"/>
			<point x="180" y="0" type="line"/>
			<point x="180" y="0"/>
			<point x="163" y="145"/>
			<point x="163" y="300" type="curve" smooth="yes"/>
			<point x="163" y="392"/>
			<point x="162" y="434"/>
			<point x="164" y="526" type="curve" smooth="yes"/>
			<point x="169" y="751" type="line"/>
			<point x="169" y="751"/>
			<point x="149" y="753"/>
			<point x="119" y="753" type="curve" smooth="yes"/>
			<point x="89" y="753"/>
			<point x="69" y="751"/>
			<point x="69" y="751" type="curve"/>
			<point x="72" y="688"/>
			<point x="73" y="645"/>
			<point x="73" y="526" type="curve" smooth="yes"/>
			<point x="73" y="286" type="line" smooth="yes"/>
			<point x="73" y="160"/>
			<point x="68" y="0"/>
		</contour>
	</outline>
</glyph>
<glyph name="l" format="2">
	<advance width="258"/>
	<unicode hex="006C"/>
	<anchor x="133" y="800" name="top"/>
	<anchor x="133" y="0" name="bottom"/>
	<anchor x="133" y="400" name="center"/>
	<anchor x="233" y="800" name="topright"/>
	<outline>
		<contour>
			<point x="120" y="-19" type="curve"/>
			<point x="158" y="-13"/>
			<point x="190" y="-3"/>
			<point x="213" y="21" type="curve"/>
			<point x="177" y="68"/>
			<point x="164" y="124"/>
			<point x="164" y="249" type="curve" smooth="yes"/>
			<point x="164" y="433"/>
			<point x="166" y="616"/>
			<point x="168" y="800" type="curve"/>
			<point x="168" y="800"/>
			<point x="144" y="802"/>
			<point x="120" y="802" type="curve" smooth="yes"/>
			<point x="90" y="802"/>
			<point x="70" y="800"/>
			<point x="70" y="800" type="curve"/>
			<point x="72" y="604"/>
			<point x="74" y="409"/>
			<point x="74" y="213" type="curve" smooth="yes"/>
			<point x="74" y="89"/>
			<point x="86" y="26"/>
		</contour>
	</outline>
</glyph>
<glyph name="o" format="2">
	<advance width="588"/>
	<unicode hex="006F"/>
	<anchor x="294" y="587" name="Top"/>
	<anchor x="294" y="550" name="top"/>
	<anchor x="294" y="0" name="bottom"/>
	<anchor x="294" y="275" name="center"/>
	<anchor x="563" y="550" name="topright"/>
	<anchor x="525" y="10" name="ogonek"/>
	<outline>
		<contour>
			<point x="294" y="-16" type="curve" smooth="yes"/>
			<point x="447" y="-16"/>
			<point x="543" y="85"/>
			<point x="543" y="275" type="curve" smooth="yes"/>
			<point x="543" y="465"/>
			<point x="447" y="566"/>
			<point x="294" y="566" type="curve" smooth="yes"/>
			<point x="141" y="566"/>
			<point x="45" y="465"/>
			<point x="45" y="275" type="curve" smooth="yes"/>
			<point x="45" y="85"/>
			<point x="141" y="-16"/>
		</contour>
		<contour>
			<point x="294" y="64" type="curve" smooth="yes"/>
			<point x="216" y="64"/>
			<point x="144" y="125"/>
			<point x="144" y="275" type="curve" smooth="yes"/>
			<point x="144" y="425"/>
			<point x="216" y="486"/>
			<point x="294" y="486" type="curve" smooth="yes"/>
			<point x="372" y="486"/>
			<point x="444" y="425"/>
			<point x="444" y="275" type="curve" smooth="yes"/>
			<point x="444" y="125"/>
			<point x="371" y="64"/>
		</contour>
	</outline>
</glyph>
<glyph name="p" format="2">
	<advance width="597"/>
	<unicode hex="0070"/>
	<anchor x="300" y="550" name="top"/>
	<anchor x="300" y="0" name="bottom"/>
	<outline>
		<contour>
			<point x="309" y="-15" type="curve" smooth="yes"/>
			<point x="457" y="-15"/>
			<point x="552" y="104"/>
			<point x="552" y="275" type="curve" smooth="yes"/>
			<point x="552" y="484"/>
			<point x="444" y="566"/>
			<point x="323" y="566" type="curve" smooth="yes"/>
			<point x="174" y="566"/>
			<point x="124" y="425"/>
			<point x="124" y="425" type="curve"/>
			<point x="165" y="335" type="line"/>
			<point x="165" y="428"/>
			<point x="236" y="485"/>
			<point x="303" y="485" type="curve" smooth="yes"/>
			<point x="398" y="485"/>
			<point x="451" y="430"/>
			<point x="451" y="275" type="curve" smooth="yes"/>
			<point x="451" y="151"/>
			<point x="388" y="64"/>
			<point x="301" y="64" type="curve" smooth="yes"/>
			<point x="215" y="64"/>
			<point x="165" y="110"/>
			<point x="165" y="252" type="curve"/>
			<point x="111" y="152" type="line"/>
			<point x="111" y="69"/>
			<point x="197" y="-15"/>
		</contour>
		<contour>
			<point x="120" y="-203" type="curve" smooth="yes"/>
			<point x="150" y="-203"/>
			<point x="178" y="-200"/>
			<point x="178" y="-200" type="curve"/>
			<point x="178" y="-200"/>
			<point x="165" y="-144"/>
			<point x="165" y="80" type="curve" smooth="yes"/>
			<point x="165" y="471" type="line"/>
			<point x="176" y="471" type="line"/>
			<point x="124" y="553" type="line"/>
			<point x="73" y="553" type="line"/>
			<point x="73" y="553"/>
			<point x="75" y="523"/>
			<point x="75" y="265" type="curve" smooth="yes"/>
			<point x="75" y="161" type="line" smooth="yes"/>
			<point x="75" y="-109"/>
			<point x="70" y="-200"/>
			<point x="70" y="-200" type="curve"/>
			<point x="70" y="-200"/>
			<point x="90" y="-203"/>
		</contour>
	</outline>
</glyph>
<glyph name="s" format="2">
	<advance width="514"/>
	<unicode hex="0073"/>
	<anchor x="258" y="550" name="top"/>
	<anchor x="258" y="0" name="bottom"/>
	<outline>
		<contour>
			<point x="258" y="-9" type="curve" smooth="yes"/>
			<point x="381" y="-9"/>
			<point x="464" y="59"/>
			<point x="464" y="152" type="curve" smooth="yes"/>
			<point x="464" y="253"/>
			<point x="368" y="304"/>
			<point x="291" y="336" type="curve" smooth="yes"/>
			<point x="210" y="370"/>
			<point x="167" y="378"/>
			<point x="167" y="428" type="curve" smooth="yes"/>
			<point x="167" y="466"/>
			<point x="193" y="494"/>
			<point x="259" y="494" type="curve" smooth="yes"/>
			<point x="342" y="494"/>
			<point x="391" y="449"/>
			<point x="391" y="449" type="curve"/>
			<point x="391" y="449"/>
			<point x="406" y="465"/>
			<point x="415" y="484" type="curve" smooth="yes"/>
			<point x="424" y="503"/>
			<point x="428" y="524"/>
			<point x="428" y="524" type="curve"/>
			<point x="428" y="526"/>
			<point x="358" y="566"/>
			<point x="262" y="566" type="curve" smooth="yes"/>
			<point x="150" y="566"/>
			<point x="70" y="511"/>
			<point x="70" y="421" type="curve" smooth="yes"/>
			<point x="70" y="319"/>
			<point x="174" y="277"/>
			<point x="248" y="250" type="curve" smooth="yes"/>
			<point x="292" y="234"/>
			<point x="370" y="205"/>
			<point x="370" y="150" type="curve" smooth="yes"/>
			<point x="370" y="112"/>
			<point x="337" y="65"/>
			<point x="263" y="65" type="curve" smooth="yes"/>
			<point x="166" y="65"/>
			<point x="93" y="141"/>
			<point x="93" y="141" type="curve"/>
			<point x="93" y="141"/>
			<point x="82" y="135"/>
			<point x="64" y="107" type="curve" smooth="yes"/>
			<point x="49" y="84"/>
			<point x="45" y="66"/>
			<point x="45" y="66" type="curve"/>
			<point x="45" y="66"/>
			<point x="128" y="-9"/>
		</contour>
	</outline>
</glyph>
<glyph name="t" format="2">
	<advance width="415"/>
	<unicode hex="0074"/>
	<anchor x="229" y="550" name="top"/>
	<anchor x="229" y="0" name="bottom"/>
	<anchor x="229" y="275" name="center"/>
	<anchor x="430" y="800" name="topright"/>
	<outline>
		<contour>
			<point x="262" y="-17" type="curve" smooth="yes"/>
			<point x="302" y="-17"/>
			<point x="360" y="-5"/>
			<point x="400" y="22" type="curve"/>
			<point x="396" y="46"/>
			<point x="385" y="80"/>
			<point x="366" y="98" type="curve"/>
			<point x="346" y="81"/>
			<point x="320" y="66"/>
			<point x="281" y="66" type="curve" smooth="yes"/>
			<point x="216" y="66"/>
			<point x="190" y="124"/>
			<point x="190" y="199" type="curve" smooth="yes"/>
			<point x="190" y="326"/>
			<point x="189" y="558"/>
			<point x="194" y="680" type="curve"/>
			<point x="194" y="680"/>
			<point x="174" y="682"/>
			<point x="144" y="682" type="curve" smooth="yes"/>
			<point x="114" y="682"/>
			<point x="94" y="680"/>
			<point x="94" y="680" type="curve"/>
			<point x="96" y="579"/>
			<point x="100" y="244"/>
			<point x="100" y="189" type="curve" smooth="yes"/>
			<point x="100" y="37"/>
			<point x="153" y="-17"/>
		</contour>
		<contour>
			<point x="370" y="468" type="curve"/>
			<point x="375" y="492"/>
			<point x="376" y="534"/>
			<point x="370" y="556" type="curve"/>
			<point x="370" y="556"/>
			<point x="300" y="550"/>
			<point x="182" y="550" type="curve" smooth="yes"/>
			<point x="18" y="550" type="line"/>
			<point x="14" y="523"/>
			<point x="14" y="494"/>
			<point x="18" y="465" type="curve"/>
			<point x="187" y="465" type="line" smooth="yes"/>
			<point x="323" y="465"/>
			<point x="370" y="468"/>
		</contour>
	</outline>
</glyph>
<glyph name="v" format="2">
	<advance width="523"/>
	<unicode hex="0076"/>
	<anchor x="262" y="550" name="top"/>
	<anchor x="262" y="0" name="bottom"/>
	<outline>
		<contour>
			<point x="217" y="0" type="line"/>
			<point x="321" y="0" type="line"/>
			<point x="503" y="550" type="line"/>
			<point x="503" y="550"/>
			<point x="495" y="555"/>
			<point x="454" y="555" type="curve" smooth="yes"/>
			<point x="404" y="555"/>
			<point x="399" y="550"/>
			<point x="399" y="550" type="curve"/>
			<point x="290" y="183" type="line"/>
			<point x="255" y="47" type="line"/>
			<point x="229" y="57" type="line"/>
		</contour>
		<contour>
			<point x="202" y="0" type="line"/>
			<point x="306" y="0" type="line"/>
			<point x="294" y="57" type="line"/>
			<point x="268" y="47" type="line"/>
			<point x="233" y="183" type="line"/>
			<point x="124" y="550" type="line"/>
			<point x="124" y="550"/>
			<point x="119" y="555"/>
			<point x="69" y="555" type="curve" smooth="yes"/>
			<point x="28" y="555"/>
			<point x="20" y="550"/>
			<point x="20" y="550" type="curve"/>
		</contour>
	</outline>
</glyph>
<glyph name="z" format="2">
	<advance width="513"/>
	<unicode hex="007A"/>
	<anchor x="257" y="550" name="top"/>
	<anchor x="257" y="0" name="bottom"/>
	<anchor x="257" y="275" name="center"/>
	<outline>
		<contour>
			<point x="456" y="-4" type="line"/>
			<point x="464" y="20"/>
			<point x="464" y="79"/>
			<point x="458" y="98" type="curve"/>
			<point x="376" y="78"/>
			<point x="219" y="78" type="curve" smooth="yes"/>
			<point x="144" y="78" type="line"/>
			<point x="147" y="38" type="line"/>
			<point x="246" y="187" type="line"/>
			<point x="473" y="534" type="line"/>
			<point x="473" y="550" type="line"/>
			<point x="213" y="550" type="line"/>
			<point x="58" y="554" type="line"/>
			<point x="50" y="530"/>
			<point x="50" y="471"/>
			<point x="56" y="452" type="curve"/>
			<point x="146" y="472"/>
			<point x="252" y="472" type="curve" smooth="yes"/>
			<point x="377" y="472" type="line"/>
			<point x="370" y="526" type="line"/>
			<point x="274" y="384" type="line"/>
			<point x="40" y="18" type="line"/>
			<point x="40" y="0" type="line"/>
			<point x="271" y="0" type="line"/>
		</contour>
	</outline>
</glyph>
<glyph name="bar" format="2">
	<advance width="255"/>
	<unicode hex="007C"/>
	<outline>
		<contour>
			<point x="73" y="-200" type="curve"/>
			<point x="182" y="-200" type="line"/>
			<point x="182" y="-200"/>
			<point x="175" y="-63"/>
			<point x="175" y="135" type="curve" smooth="yes"/>
			<point x="175" y="465" type="line" smooth="yes"/>
			<point x="175" y="666"/>
			<point x="185" y="800"/>
			<point x="185" y="800" type="curve"/>
			<point x="70" y="800" type="line"/>
			<point x="70" y="800"/>
			<point x="80" y="666"/>
			<point x="80" y="465" type="curve" smooth="yes"/>
			<point x="80" y="135" type="line" smooth="yes"/>
			<point x="80" y="-63"/>
			<point x="73" y="-200"/>
		</contour>
	</outline>
</glyph>
<glyph name="acutecomb" format="2">
	<advance width="310"/>
	<unicode hex="0301"/>
	<anchor x="53" y="550" name="_top"/>
	<outline>
		<contour>
			<point x="53" y="614" type="curve"/>
			<point x="284" y="724" type="line"/>
			<point x="290" y="762"/>
			<point x="261" y="806"/>
			<point x="225" y="806" type="curve"/>
			<point x="28" y="660" type="line"/>
			<point x="30" y="642"/>
			<point x="39" y="622"/>
		</contour>
	</outline>
</glyph>
<glyph name="dieresiscomb" format="2">
	<advance width="534"/>
	<unicode hex="0308"/>
	<anchor x="269" y="550" name="_top"/>
	<outline>
		<contour>
			<point x="403" y="632" type="curve" smooth="yes"/>
			<point x="437" y="632"/>
			<point x="464" y="660"/>
			<point x="464" y="694" type="curve" smooth="yes"/>
			<point x="464" y="728"/>
			<point x="437" y="754"/>
			<point x="403" y="754" type="curve" smooth="yes"/>
			<point x="369" y="754"/>
			<point x="342" y="728"/>
			<point x="342" y="694" type="curve" smooth="yes"/>
			<point x="342" y="660"/>
			<point x="369" y="632"/>
		</contour>
		<contour>
			<point x="131" y="632" type="curve" smooth="yes"/>
			<point x="165" y="632"/>
			<point x="192" y="660"/>
			<point x="192" y="694" type="curve" smooth="yes"/>
			<point x="192" y="728"/>
			<point x="165" y="754"/>
			<point x="131" y="754" type="curve" smooth="yes"/>
			<point x="97" y="754"/>
			<point x="70" y="728"/>
			<point x="70" y="694" type="curve" smooth="yes"/>
			<point x="70" y="660"/>
			<point x="97" y="632"/>
		</contour>
	</outline>
</glyph>
<glyph name="arrowright" format="2">
	<advance width="761"/>
	<unicode hex="2192"/>
	<outline>
		<contour>
			<point x="651" y="258" type="line"/>
			<point x="711" y="320" type="line"/>
			<point x="711" y="320"/>
			<point x="648" y="383"/>
			<point x="629" y="404" type="curve" smooth="yes"/>
			<point x="414" y="631" type="line"/>
			<point x="414" y="631"/>
			<point x="396" y="620"/>
			<point x="372" y="596" type="curve" smooth="yes"/>
			<point x="348" y="571"/>
			<point x="333" y="549"/>
			<point x="333" y="549" type="curve"/>
			<point x="333" y="549"/>
			<point x="508" y="393"/>
			<point x="566" y="340" type="curve" smooth="yes"/>
		</contour>
		<contour>
			<point x="57" y="263" type="curve"/>
			<point x="450" y="276" type="line" smooth="yes"/>
			<point x="488" y="277"/>
			<point x="599" y="278"/>
			<point x="599" y="278" type="curve"/>
			<point x="599" y="364" type="line"/>
			<point x="599" y="364"/>
			<point x="487" y="365"/>
			<point x="449" y="366" type="curve" smooth="yes"/>
			<point x="351" y="368"/>
			<point x="55" y="378"/>
			<point x="55" y="378" type="curve"/>
			<point x="55" y="378"/>
			<point x="50" y="357"/>
			<point x="50" y="323" type="curve" smooth="yes"/>
			<point x="50" y="288"/>
			<point x="57" y="263"/>
		</contour>
		<contour>
			<point x="414" y="8" type="curve"/>
			<point x="414" y="8"/>
			<point x="575" y="179"/>
			<point x="629" y="235" type="curve" smooth="yes"/>
			<point x="648" y="256"/>
			<point x="711" y="319"/>
			<point x="711" y="319" type="curve"/>
			<point x="651" y="381" type="line"/>
			<point x="566" y="300" type="line" smooth="yes"/>
			<point x="508" y="247"/>
			<point x="333" y="90"/>
			<point x="333" y="90" type="curve"/>
			<point x="333" y="90"/>
			<point x="348" y="68"/>
			<point x="372" y="44" type="curve" smooth="yes"/>
			<point x="396" y="19"/>
			<point x="414" y="8"/>
		</contour>
	</outline>
</glyph>
<glyph name="leftRightArrow" format="2">
	<advance width="1159"/>
	<unicode hex="2194"/>
	<outline>
		<contour>
			<point x="1046" y="255" type="line"/>
			<point x="1109" y="320" type="line"/>
			<point x="1022" y="408" type="line" smooth="yes"/>
			<point x="966" y="467"/>
			<point x="798" y="647"/>
			<point x="798" y="647" type="curve"/>
			<point x="798" y="647"/>
			<point x="780" y="635"/>
			<point x="755" y="608" type="curve" smooth="yes"/>
			<point x="729" y="583"/>
			<point x="713" y="560"/>
			<point x="713" y="560" type="curve"/>
			<point x="713" y="560"/>
			<point x="897" y="396"/>
			<point x="957" y="340" type="curve" smooth="yes"/>
		</contour>
		<contour>
			<point x="361" y="-8" type="curve"/>
			<point x="361" y="-8"/>
			<point x="379" y="4"/>
			<point x="404" y="31" type="curve" smooth="yes"/>
			<point x="430" y="56"/>
			<point x="446" y="79"/>
			<point x="446" y="79" type="curve"/>
			<point x="446" y="79"/>
			<point x="263" y="243"/>
			<point x="202" y="299" type="curve" smooth="yes"/>
			<point x="113" y="384" type="line"/>
			<point x="50" y="319" type="line"/>
			<point x="50" y="319"/>
			<point x="115" y="254"/>
			<point x="137" y="231" type="curve" smooth="yes"/>
			<point x="193" y="172"/>
			<point x="361" y="-8"/>
		</contour>
		<contour>
			<point x="113" y="255" type="line"/>
			<point x="202" y="340" type="line" smooth="yes"/>
			<point x="263" y="396"/>
			<point x="446" y="560"/>
			<point x="446" y="560" type="curve"/>
			<point x="446" y="560"/>
			<point x="430" y="583"/>
			<point x="404" y="608" type="curve" smooth="yes"/>
			<point x="379" y="635"/>
			<point x="361" y="647"/>
			<point x="361" y="647" type="curve"/>
			<point x="361" y="647"/>
			<point x="193" y="467"/>
			<point x="137" y="408" type="curve" smooth="yes"/>
			<point x="50" y="320" type="line"/>
		</contour>
		<contour>
			<point x="168" y="273" type="line"/>
			<point x="991" y="274" type="line"/>
			<point x="991" y="364" type="line"/>
			<point x="991" y="364"/>
			<point x="641" y="363"/>
			<point x="542" y="363" type="curve" smooth="yes"/>
			<point x="168" y="363" type="line"/>
		</contour>
		<contour>
			<point x="798" y="-8" type="curve"/>
			<point x="798" y="-8"/>
			<point x="966" y="172"/>
			<point x="1022" y="231" type="curve" smooth="yes"/>
			<point x="1044" y="254"/>
			<point x="1109" y="319"/>
			<point x="1109" y="319" type="curve"/>
			<point x="1046" y="384" type="line"/>
			<point x="957" y="299" type="line" smooth="yes"/>
			<point x="897" y="243"/>
			<point x="713" y="79"/>
			<point x="713" y="79" type="curve"/>
			<point x="713" y="79"/>
			<point x="729" y="56"/>
			<point x="755" y="31" type="curve" smooth="yes"/>
			<point x="780" y="4"/>
			<point x="798" y="-8"/>
		</contour>
	</outline>
</glyph>
<glyph name="Auditorio" format="2">
	<advance width="1042"/>
	<outline>
		<contour>
			<point x="264" y="-57" type="curve" smooth="yes"/>
			<point x="312" y="-57"/>
			<point x="407" y="-54"/>
			<point x="413" y="40" type="curve"/>
			<point x="426" y="40"/>
			<point x="442" y="59"/>
			<point x="442" y="107" type="curve" smooth="yes"/>
			<point x="442" y="135"/>
			<point x="432" y="153"/>
			<point x="419" y="153" type="curve"/>
			<point x="410" y="228"/>
			<point x="340" y="276"/>
			<point x="264" y="276" type="curve" smooth="yes"/>
			<point x="188" y="276"/>
			<point x="119" y="228"/>
			<point x="110" y="153" type="curve"/>
			<point x="97" y="153"/>
			<point x="87" y="135"/>
			<point x="87" y="107" type="curve" smooth="yes"/>
			<point x="87" y="59"/>
			<point x="103" y="40"/>
			<point x="116" y="40" type="curve"/>
			<point x="122" y="-54"/>
			<point x="216" y="-57"/>
		</contour>
		<contour>
			<point x="80" y="-260" type="curve" smooth="yes"/>
			<point x="449" y="-260" type="line" smooth="yes"/>
			<point x="460" y="-260"/>
			<point x="469" y="-250"/>
			<point x="469" y="-240" type="curve" smooth="yes"/>
			<point x="469" y="-186" type="line" smooth="yes"/>
			<point x="469" y="-180"/>
			<point x="466" y="-174"/>
			<point x="462" y="-171" type="curve" smooth="yes"/>
			<point x="458" y="-168"/>
			<point x="394" y="-116"/>
			<point x="264" y="-116" type="curve" smooth="yes"/>
			<point x="131" y="-116"/>
			<point x="70" y="-169"/>
			<point x="67" y="-171" type="curve" smooth="yes"/>
			<point x="63" y="-175"/>
			<point x="60" y="-181"/>
			<point x="60" y="-186" type="curve" smooth="yes"/>
			<point x="60" y="-240" type="line" smooth="yes"/>
			<point x="60" y="-251"/>
			<point x="70" y="-260"/>
		</contour>
		<contour>
			<point x="100" y="-220" type="line"/>
			<point x="100" y="-196" type="line"/>
			<point x="118" y="-184"/>
			<point x="170" y="-156"/>
			<point x="264" y="-156" type="curve" smooth="yes"/>
			<point x="356" y="-156"/>
			<point x="410" y="-184"/>
			<point x="429" y="-196" type="curve"/>
			<point x="429" y="-220" type="line"/>
			<point x="403" y="-220"/>
			<point x="346" y="-220"/>
			<point x="264" y="-220" type="curve" smooth="yes"/>
		</contour>
		<contour>
			<point x="264" y="-17" type="curve" smooth="yes"/>
			<point x="208" y="-17"/>
			<point x="156" y="-13"/>
			<point x="156" y="49" type="curve" smooth="yes"/>
			<point x="156" y="64"/>
			<point x="127" y="65"/>
			<point x="127" y="103" type="curve" smooth="yes"/>
			<point x="127" y="111"/>
			<point x="130" y="123"/>
			<point x="130" y="123" type="curve"/>
			<point x="140" y="123"/>
			<point x="149" y="129"/>
			<point x="149" y="147" type="curve" smooth="yes"/>
			<point x="149" y="192"/>
			<point x="200" y="236"/>
			<point x="264" y="236" type="curve" smooth="yes"/>
			<point x="328" y="236"/>
			<point x="380" y="192"/>
			<point x="380" y="147" type="curve" smooth="yes"/>
			<point x="380" y="129"/>
			<point x="389" y="123"/>
			<point x="399" y="123" type="curve"/>
			<point x="399" y="123"/>
			<point x="402" y="111"/>
			<point x="402" y="103" type="curve" smooth="yes"/>
			<point x="402" y="65"/>
			<point x="373" y="64"/>
			<point x="373" y="49" type="curve" smooth="yes"/>
			<point x="373" y="-13"/>
			<point x="320" y="-17"/>
		</contour>
		<contour>
			<point x="593" y="-260" type="curve" smooth="yes"/>
			<point x="963" y="-260" type="line" smooth="yes"/>
			<point x="974" y="-260"/>
			<point x="982" y="-250"/>
			<point x="982" y="-240" type="curve" smooth="yes"/>
			<point x="982" y="-186" type="line" smooth="yes"/>
			<point x="982" y="-180"/>
			<point x="980" y="-174"/>
			<point x="976" y="-171" type="curve" smooth="yes"/>
			<point x="972" y="-168"/>
			<point x="908" y="-116"/>
			<point x="778" y="-116" type="curve" smooth="yes"/>
			<point x="645" y="-116"/>
			<point x="583" y="-169"/>
			<point x="580" y="-171" type="curve" smooth="yes"/>
			<point x="576" y="-175"/>
			<point x="574" y="-181"/>
			<point x="574" y="-186" type="curve" smooth="yes"/>
			<point x="574" y="-240" type="line" smooth="yes"/>
			<point x="574" y="-251"/>
			<point x="583" y="-260"/>
		</contour>
		<contour>
			<point x="614" y="-220" type="line"/>
			<point x="614" y="-196" type="line"/>
			<point x="632" y="-184"/>
			<point x="684" y="-156"/>
			<point x="778" y="-156" type="curve" smooth="yes"/>
			<point x="870" y="-156"/>
			<point x="923" y="-184"/>
			<point x="942" y="-196" type="curve"/>
			<point x="942" y="-220" type="line"/>
			<point x="916" y="-220"/>
			<point x="860" y="-220"/>
			<point x="778" y="-220" type="curve" smooth="yes"/>
		</contour>
		<contour>
			<point x="778" y="-57" type="curve" smooth="yes"/>
			<point x="826" y="-57"/>
			<point x="920" y="-54"/>
			<point x="926" y="40" type="curve"/>
			<point x="939" y="40"/>
			<point x="955" y="59"/>
			<point x="955" y="107" type="curve" smooth="yes"/>
			<point x="955" y="135"/>
			<point x="946" y="153"/>
			<point x="933" y="153" type="curve"/>
			<point x="924" y="228"/>
			<point x="854" y="276"/>
			<point x="778" y="276" type="curve" smooth="yes"/>
			<point x="702" y="276"/>
			<point x="632" y="228"/>
			<point x="623" y="153" type="curve"/>
			<point x="610" y="153"/>
			<point x="601" y="135"/>
			<point x="601" y="107" type="curve" smooth="yes"/>
			<point x="601" y="59"/>
			<point x="617" y="40"/>
			<point x="630" y="40" type="curve"/>
			<point x="636" y="-54"/>
			<point x="730" y="-57"/>
		</contour>
		<contour>
			<point x="778" y="-17" type="curve" smooth="yes"/>
			<point x="722" y="-17"/>
			<point x="669" y="-13"/>
			<point x="669" y="49" type="curve" smooth="yes"/>
			<point x="669" y="64"/>
			<point x="641" y="65"/>
			<point x="641" y="103" type="curve" smooth="yes"/>
			<point x="641" y="111"/>
			<point x="644" y="123"/>
			<point x="644" y="123" type="curve"/>
			<point x="654" y="123"/>
			<point x="662" y="129"/>
			<point x="662" y="147" type="curve" smooth="yes"/>
			<point x="662" y="192"/>
			<point x="714" y="236"/>
			<point x="778" y="236" type="curve" smooth="yes"/>
			<point x="842" y="236"/>
			<point x="894" y="192"/>
			<point x="894" y="147" type="curve" smooth="yes"/>
			<point x="894" y="129"/>
			<point x="902" y="123"/>
			<point x="912" y="123" type="curve"/>
			<point x="912" y="123"/>
			<point x="915" y="111"/>
			<point x="915" y="103" type="curve" smooth="yes"/>
			<point x="915" y="65"/>
			<point x="887" y="64"/>
			<point x="887" y="49" type="curve" smooth="yes"/>
			<point x="887" y="-13"/>
			<point x="834" y="-17"/>
		</contour>
		<contour>
			<point x="339" y="354" type="curve" smooth="yes"/>
			<point x="709" y="354" type="line" smooth="yes"/>
			<point x="720" y="354"/>
			<point x="728" y="364"/>
			<point x="728" y="374" type="curve" smooth="yes"/>
			<point x="728" y="428" type="line" smooth="yes"/>
			<point x="728" y="434"/>
			<point x="726" y="440"/>
			<point x="722" y="443" type="curve" smooth="yes"/>
			<point x="718" y="446"/>
			<point x="654" y="498"/>
			<point x="524" y="498" type="curve" smooth="yes"/>
			<point x="391" y="498"/>
			<point x="329" y="445"/>
			<point x="326" y="443" type="curve" smooth="yes"/>
			<point x="322" y="439"/>
			<point x="320" y="433"/>
			<point x="320" y="428" type="curve" smooth="yes"/>
			<point x="320" y="374" type="line" smooth="yes"/>
			<point x="320" y="363"/>
			<point x="329" y="354"/>
		</contour>
		<contour>
			<point x="360" y="394" type="line"/>
			<point x="360" y="418" type="line"/>
			<point x="378" y="430"/>
			<point x="430" y="458"/>
			<point x="524" y="458" type="curve" smooth="yes"/>
			<point x="616" y="458"/>
			<point x="669" y="430"/>
			<point x="688" y="418" type="curve"/>
			<point x="688" y="394" type="line"/>
			<point x="662" y="394"/>
			<point x="606" y="394"/>
			<point x="524" y="394" type="curve" smooth="yes"/>
		</contour>
		<contour>
			<point x="490" y="360" type="line"/>
			<point x="558" y="360" type="line"/>
			<point x="538" y="437" type="line"/>
			<point x="554" y="487" type="line"/>
			<point x="494" y="487" type="line"/>
			<point x="510" y="437" type="line"/>
		</contour>
		<contour>
			<point x="524" y="557" type="curve" smooth="yes"/>
			<point x="572" y="557"/>
			<point x="666" y="560"/>
			<point x="672" y="654" type="curve"/>
			<point x="685" y="654"/>
			<point x="701" y="673"/>
			<point x="701" y="721" type="curve" smooth="yes"/>
			<point x="701" y="749"/>
			<point x="692" y="767"/>
			<point x="679" y="767" type="curve"/>
			<point x="670" y="842"/>
			<point x="600" y="890"/>
			<point x="524" y="890" type="curve" smooth="yes"/>
			<point x="448" y="890"/>
			<point x="378" y="842"/>
			<point x="369" y="767" type="curve"/>
			<point x="356" y="767"/>
			<point x="347" y="749"/>
			<point x="347" y="721" type="curve" smooth="yes"/>
			<point x="347" y="673"/>
			<point x="363" y="654"/>
			<point x="376" y="654" type="curve"/>
			<point x="382" y="560"/>
			<point x="476" y="557"/>
		</contour>
		<contour>
			<point x="524" y="597" type="curve" smooth="yes"/>
			<point x="468" y="597"/>
			<point x="415" y="601"/>
			<point x="415" y="663" type="curve" smooth="yes"/>
			<point x="415" y="678"/>
			<point x="387" y="679"/>
			<point x="387" y="717" type="curve" smooth="yes"/>
			<point x="387" y="725"/>
			<point x="390" y="737"/>
			<point x="390" y="737" type="curve"/>
			<point x="400" y="737"/>
			<point x="408" y="743"/>
			<point x="408" y="761" type="curve" smooth="yes"/>
			<point x="408" y="806"/>
			<point x="460" y="850"/>
			<point x="524" y="850" type="curve" smooth="yes"/>
			<point x="588" y="850"/>
			<point x="640" y="806"/>
			<point x="640" y="761" type="curve" smooth="yes"/>
			<point x="640" y="743"/>
			<point x="648" y="737"/>
			<point x="658" y="737" type="curve"/>
			<point x="658" y="737"/>
			<point x="661" y="725"/>
			<point x="661" y="717" type="curve" smooth="yes"/>
			<point x="661" y="679"/>
			<point x="633" y="678"/>
			<point x="633" y="663" type="curve" smooth="yes"/>
			<point x="633" y="601"/>
			<point x="580" y="597"/>
		</contour>
	</outline>
</glyph>
<glyph name="Biblioteca" format="2">
	<advance width="1164"/>
	<outline>
		<contour>
			<point x="577" y="-121" type="line" smooth="yes"/>
			<point x="585" y="-123"/>
			<point x="598" y="-117"/>
			<point x="601" y="-105" type="curve" smooth="yes"/>
			<point x="774" y="763" type="line" smooth="yes"/>
			<point x="776" y="772"/>
			<point x="770" y="785"/>
			<point x="759" y="787" type="curve" smooth="yes"/>
			<point x="588" y="821" type="line" smooth="yes"/>
			<point x="580" y="823"/>
			<point x="567" y="817"/>
			<point x="564" y="805" type="curve" smooth="yes"/>
			<point x="391" y="-63" type="line" smooth="yes"/>
			<point x="389" y="-72"/>
			<point x="395" y="-85"/>
			<point x="406" y="-87" type="curve" smooth="yes"/>
		</contour>
		<contour>
			<point x="80" y="-184" type="curve" smooth="yes"/>
			<point x="1084" y="-184" type="line" smooth="yes"/>
			<point x="1095" y="-184"/>
			<point x="1104" y="-175"/>
			<point x="1104" y="-164" type="curve" smooth="yes"/>
			<point x="1104" y="-153"/>
			<point x="1095" y="-144"/>
			<point x="1084" y="-144" type="curve" smooth="yes"/>
			<point x="80" y="-144" type="line" smooth="yes"/>
			<point x="69" y="-144"/>
			<point x="60" y="-153"/>
			<point x="60" y="-164" type="curve" smooth="yes"/>
			<point x="60" y="-175"/>
			<point x="69" y="-184"/>
		</contour>
		<contour>
			<point x="153" y="-114" type="curve" smooth="yes"/>
			<point x="327" y="-114" type="line" smooth="yes"/>
			<point x="336" y="-114"/>
			<point x="347" y="-106"/>
			<point x="347" y="-94" type="curve" smooth="yes"/>
			<point x="347" y="792" type="line" smooth="yes"/>
			<point x="347" y="801"/>
			<point x="339" y="812"/>
			<point x="327" y="812" type="curve" smooth="yes"/>
			<point x="153" y="812" type="line" smooth="yes"/>
			<point x="144" y="812"/>
			<point x="133" y="804"/>
			<point x="133" y="792" type="curve" smooth="yes"/>
			<point x="133" y="-94" type="line" smooth="yes"/>
			<point x="133" y="-103"/>
			<point x="141" y="-114"/>
		</contour>
		<contour>
			<point x="173" y="-74" type="line"/>
			<point x="173" y="772" type="line"/>
			<point x="307" y="772" type="line"/>
			<point x="307" y="-74" type="line"/>
		</contour>
		<contour>
			<point x="534" y="4" type="line"/>
			<point x="633" y="502" type="line"/>
			<point x="594" y="510" type="line"/>
			<point x="494" y="12" type="line"/>
		</contour>
		<contour>
			<point x="220" y="472" type="line"/>
			<point x="260" y="472" type="line"/>
			<point x="260" y="722" type="line"/>
			<point x="220" y="722" type="line"/>
		</contour>
		<contour>
			<point x="565" y="-78" type="line"/>
			<point x="434" y="-52" type="line"/>
			<point x="600" y="778" type="line"/>
			<point x="731" y="752" type="line"/>
		</contour>
		<contour>
			<point x="843" y="-114" type="curve" smooth="yes"/>
			<point x="1017" y="-114" type="line" smooth="yes"/>
			<point x="1026" y="-114"/>
			<point x="1037" y="-106"/>
			<point x="1037" y="-94" type="curve" smooth="yes"/>
			<point x="1037" y="792" type="line" smooth="yes"/>
			<point x="1037" y="801"/>
			<point x="1029" y="812"/>
			<point x="1017" y="812" type="curve" smooth="yes"/>
			<point x="843" y="812" type="line" smooth="yes"/>
			<point x="834" y="812"/>
			<point x="823" y="804"/>
			<point x="823" y="792" type="curve" smooth="yes"/>
			<point x="823" y="-94" type="line" smooth="yes"/>
			<point x="823" y="-103"/>
			<point x="831" y="-114"/>
		</contour>
		<contour>
			<point x="863" y="-74" type="line"/>
			<point x="863" y="772" type="line"/>
			<point x="997" y="772" type="line"/>
			<point x="997" y="-74" type="line"/>
		</contour>
		<contour>
			<point x="910" y="242" type="line"/>
			<point x="950" y="242" type="line"/>
			<point x="950" y="732" type="line"/>
			<point x="910" y="732" type="line"/>
		</contour>
	</outline>
</glyph>
<glyph name="Hombre" format="2">
	<advance width="577"/>
	<outline>
		<contour>
			<point x="186" y="-195" type="curve" smooth="yes"/>
			<point x="206" y="-209"/>
			<point x="246" y="-214"/>
			<point x="267" y="-193" type="curve" smooth="yes"/>
			<point x="271" y="-189"/>
			<point x="273" y="-185"/>
			<point x="273" y="-180" type="curve" smooth="yes"/>
			<point x="283" y="0" type="line"/>
			<point x="289" y="144" type="line"/>
			<point x="294" y="0" type="line"/>
			<point x="304" y="-180" type="line" smooth="yes"/>
			<point x="304" y="-185"/>
			<point x="306" y="-189"/>
			<point x="310" y="-193" type="curve" smooth="yes"/>
			<point x="331" y="-214"/>
			<point x="372" y="-209"/>
			<point x="392" y="-195" type="curve" smooth="yes"/>
			<point x="397" y="-192"/>
			<point x="400" y="-186"/>
			<point x="400" y="-179" type="curve" smooth="yes"/>
			<point x="395" y="245" type="line"/>
			<point x="400" y="404" type="line"/>
			<point x="403" y="404" type="line"/>
			<point x="421" y="209" type="line" smooth="yes"/>
			<point x="422" y="202"/>
			<point x="425" y="194"/>
			<point x="430" y="188" type="curve" smooth="yes"/>
			<point x="440" y="176"/>
			<point x="454" y="173"/>
			<point x="467" y="173" type="curve" smooth="yes"/>
			<point x="485" y="173"/>
			<point x="510" y="184"/>
			<point x="510" y="211" type="curve" smooth="yes"/>
			<point x="510" y="257"/>
			<point x="517" y="453"/>
			<point x="517" y="486" type="curve" smooth="yes"/>
			<point x="517" y="524"/>
			<point x="496" y="570"/>
			<point x="442" y="570" type="curve" smooth="yes"/>
			<point x="135" y="570" type="line" smooth="yes"/>
			<point x="81" y="570"/>
			<point x="60" y="524"/>
			<point x="60" y="486" type="curve" smooth="yes"/>
			<point x="60" y="453"/>
			<point x="67" y="257"/>
			<point x="67" y="211" type="curve" smooth="yes"/>
			<point x="67" y="184"/>
			<point x="92" y="173"/>
			<point x="110" y="173" type="curve" smooth="yes"/>
			<point x="123" y="173"/>
			<point x="137" y="176"/>
			<point x="147" y="188" type="curve" smooth="yes"/>
			<point x="152" y="194"/>
			<point x="155" y="202"/>
			<point x="156" y="209" type="curve" smooth="yes"/>
			<point x="174" y="404" type="line"/>
			<point x="177" y="404" type="line"/>
			<point x="182" y="245" type="line"/>
			<point x="177" y="-179" type="line" smooth="yes"/>
			<point x="177" y="-186"/>
			<point x="181" y="-192"/>
		</contour>
		<contour>
			<point x="234" y="-166" type="line"/>
			<point x="217" y="-165" type="line"/>
			<point x="222" y="247" type="line"/>
			<point x="216" y="425" type="line" smooth="yes"/>
			<point x="216" y="435"/>
			<point x="207" y="444"/>
			<point x="196" y="444" type="curve" smooth="yes"/>
			<point x="156" y="444" type="line" smooth="yes"/>
			<point x="146" y="444"/>
			<point x="137" y="436"/>
			<point x="136" y="426" type="curve" smooth="yes"/>
			<point x="116" y="214" type="line"/>
			<point x="107" y="213" type="line"/>
			<point x="107" y="264"/>
			<point x="100" y="456"/>
			<point x="100" y="486" type="curve" smooth="yes"/>
			<point x="100" y="506"/>
			<point x="112" y="530"/>
			<point x="135" y="530" type="curve" smooth="yes"/>
			<point x="442" y="530" type="line" smooth="yes"/>
			<point x="465" y="530"/>
			<point x="477" y="506"/>
			<point x="477" y="486" type="curve" smooth="yes"/>
			<point x="477" y="456"/>
			<point x="470" y="264"/>
			<point x="470" y="213" type="curve"/>
			<point x="461" y="214" type="line"/>
			<point x="441" y="426" type="line" smooth="yes"/>
			<point x="440" y="436"/>
			<point x="431" y="444"/>
			<point x="421" y="444" type="curve" smooth="yes"/>
			<point x="381" y="444" type="line" smooth="yes"/>
			<point x="370" y="444"/>
			<point x="361" y="435"/>
			<point x="361" y="425" type="curve" smooth="yes"/>
			<point x="355" y="247" type="line"/>
			<point x="360" y="-165" type="line"/>
			<point x="344" y="-166" type="line"/>
			<point x="317" y="233" type="line" smooth="yes"/>
			<point x="316" y="243"/>
			<point x="307" y="252"/>
			<point x="297" y="252" type="curve" smooth="yes"/>
			<point x="280" y="252" type="line" smooth="yes"/>
			<point x="270" y="252"/>
			<point x="261" y="244"/>
			<point x="260" y="233" type="curve" smooth="yes"/>
		</contour>
		<contour>
			<point x="289" y="622" type="curve" smooth="yes"/>
			<point x="346" y="622"/>
			<point x="392" y="667"/>
			<point x="392" y="724" type="curve" smooth="yes"/>
			<point x="392" y="781"/>
			<point x="346" y="826"/>
			<point x="289" y="826" type="curve" smooth="yes"/>
			<point x="232" y="826"/>
			<point x="187" y="781"/>
			<point x="187" y="724" type="curve" smooth="yes"/>
			<point x="187" y="667"/>
			<point x="232" y="622"/>
		</contour>
		<contour>
			<point x="289" y="662" type="curve" smooth="yes"/>
			<point x="254" y="662"/>
			<point x="227" y="689"/>
			<point x="227" y="724" type="curve" smooth="yes"/>
			<point x="227" y="759"/>
			<point x="254" y="786"/>
			<point x="289" y="786" type="curve" smooth="yes"/>
			<point x="324" y="786"/>
			<point x="352" y="759"/>
			<point x="352" y="724" type="curve" smooth="yes"/>
			<point x="352" y="689"/>
			<point x="324" y="662"/>
		</contour>
	</outline>
</glyph>
<glyph name="Laboratorio" format="2">
	<advance width="720"/>
	<outline>
		<contour>
			<point x="80" y="0" type="curve" smooth="yes"/>
			<point x="640" y="0" type="line" smooth="yes"/>
			<point x="642" y="0"/>
			<point x="646" y="1"/>
			<point x="648" y="2" type="curve" smooth="yes"/>
			<point x="658" y="7"/>
			<point x="662" y="19"/>
			<point x="658" y="29" type="curve" smooth="yes"/>
			<point x="452" y="497" type="line"/>
			<point x="452" y="770" type="line" smooth="yes"/>
			<point x="452" y="781"/>
			<point x="443" y="790"/>
			<point x="432" y="790" type="curve" smooth="yes"/>
			<point x="421" y="790"/>
			<point x="412" y="781"/>
			<point x="412" y="770" type="curve" smooth="yes"/>
			<point x="412" y="492" type="line" smooth="yes"/>
			<point x="412" y="489"/>
			<point x="413" y="486"/>
			<point x="414" y="483" type="curve" smooth="yes"/>
			<point x="607" y="40" type="line"/>
			<point x="113" y="40" type="line"/>
			<point x="306" y="483" type="line" smooth="yes"/>
			<point x="307" y="486"/>
			<point x="308" y="489"/>
			<point x="308" y="492" type="curve" smooth="yes"/>
			<point x="308" y="770" type="line" smooth="yes"/>
			<point x="308" y="781"/>
			<point x="299" y="790"/>
			<point x="288" y="790" type="curve" smooth="yes"/>
			<point x="277" y="790"/>
			<point x="268" y="781"/>
			<point x="268" y="770" type="curve" smooth="yes"/>
			<point x="268" y="497" type="line"/>
			<point x="62" y="29" type="line" smooth="yes"/>
			<point x="58" y="19"/>
			<point x="61" y="6"/>
			<point x="72" y="2" type="curve" smooth="yes"/>
			<point x="74" y="1"/>
			<point x="77" y="0"/>
		</contour>
		<contour>
			<point x="428" y="218" type="curve" smooth="yes"/>
			<point x="500" y="218"/>
			<point x="535" y="268"/>
			<point x="537" y="271" type="curve" smooth="yes"/>
			<point x="544" y="280"/>
			<point x="540" y="292"/>
			<point x="532" y="298" type="curve" smooth="yes"/>
			<point x="524" y="304"/>
			<point x="512" y="303"/>
			<point x="505" y="294" type="curve" smooth="yes"/>
			<point x="503" y="292"/>
			<point x="477" y="258"/>
			<point x="428" y="258" type="curve" smooth="yes"/>
			<point x="383" y="258"/>
			<point x="350" y="308"/>
			<point x="272" y="308" type="curve" smooth="yes"/>
			<point x="197" y="308"/>
			<point x="161" y="249"/>
			<point x="159" y="246" type="curve" smooth="yes"/>
			<point x="154" y="238"/>
			<point x="156" y="225"/>
			<point x="166" y="219" type="curve" smooth="yes"/>
			<point x="176" y="213"/>
			<point x="188" y="217"/>
			<point x="193" y="225" type="curve" smooth="yes"/>
			<point x="196" y="229"/>
			<point x="223" y="268"/>
			<point x="272" y="268" type="curve" smooth="yes"/>
			<point x="320" y="268"/>
			<point x="351" y="218"/>
		</contour>
		<contour>
			<point x="238" y="760" type="curve" smooth="yes"/>
			<point x="482" y="760" type="line" smooth="yes"/>
			<point x="492" y="760"/>
			<point x="502" y="769"/>
			<point x="502" y="780" type="curve" smooth="yes"/>
			<point x="502" y="791"/>
			<point x="492" y="800"/>
			<point x="482" y="800" type="curve" smooth="yes"/>
			<point x="238" y="800" type="line" smooth="yes"/>
			<point x="227" y="800"/>
			<point x="218" y="791"/>
			<point x="218" y="780" type="curve" smooth="yes"/>
			<point x="218" y="769"/>
			<point x="227" y="760"/>
		</contour>
	</outline>
</glyph>
<glyph name="Q.ss01" format="2">
	<advance width="705"/>
	<anchor x="353" y="750" name="top"/>
	<anchor x="353" y="0" name="bottom"/>
	<outline>
		<contour>
			<point x="392" y="-215" type="curve" smooth="yes"/>
			<point x="532" y="-215"/>
			<point x="569" y="-168"/>
			<point x="569" y="-168" type="curve"/>
			<point x="578" y="-140"/>
			<point x="569" y="-93"/>
			<point x="545" y="-83" type="curve"/>
			<point x="545" y="-83"/>
			<point x="485" y="-133"/>
			<point x="388" y="-133" type="curve" smooth="yes"/>
			<point x="240" y="-133"/>
			<point x="243" y="0"/>
			<point x="243" y="0" type="curve"/>
			<point x="206" y="0" type="line"/>
			<point x="206" y="0"/>
			<point x="236" y="-52"/>
			<point x="319" y="-52" type="curve" smooth="yes"/>
			<point x="483" y="-52"/>
			<point x="655" y="76"/>
			<point x="655" y="374" type="curve" smooth="yes"/>
			<point x="655" y="672"/>
			<point x="513" y="766"/>
			<point x="355" y="766" type="curve" smooth="yes"/>
			<point x="197" y="766"/>
			<point x="50" y="673"/>
			<point x="50" y="405" type="curve" smooth="yes"/>
			<point x="50" y="196"/>
			<point x="146" y="117"/>
			<point x="203" y="88" type="curve"/>
			<point x="234" y="90"/>
			<point x="266" y="130"/>
			<point x="268" y="157" type="curve"/>
			<point x="212" y="192"/>
			<point x="165" y="260"/>
			<point x="165" y="405" type="curve" smooth="yes"/>
			<point x="165" y="624"/>
			<point x="262" y="683"/>
			<point x="355" y="683" type="curve" smooth="yes"/>
			<point x="448" y="683"/>
			<point x="555" y="623"/>
			<point x="555" y="374" type="curve" smooth="yes"/>
			<point x="555" y="125"/>
			<point x="418" y="27"/>
			<point x="300" y="27" type="curve" smooth="yes"/>
			<point x="244" y="27"/>
			<point x="196" y="46"/>
			<point x="196" y="46" type="curve"/>
			<point x="196" y="46"/>
			<point x="171" y="21"/>
			<point x="171" y="-30" type="curve" smooth="yes"/>
			<point x="171" y="-125"/>
			<point x="254" y="-215"/>
		</contour>
	</outline>
</glyph>
<glyph name="g.ss01" format="2">
	<advance width="570"/>
	<anchor x="291" y="550" name="top"/>
	<anchor x="291" y="-200" name="bottom"/>
	<outline>
		<contour>
			<point x="276" y="-214" type="curve" smooth="yes"/>
			<point x="400" y="-214"/>
			<point x="522" y="-186"/>
			<point x="522" y="-60" type="curve" smooth="yes"/>
			<point x="522" y="35"/>
			<point x="453" y="64"/>
			<point x="331" y="64" type="curve" smooth="yes"/>
			<point x="292" y="64" type="line" smooth="yes"/>
			<point x="249" y="64"/>
			<point x="152" y="48"/>
			<point x="152" y="128" type="curve" smooth="yes"/>
			<point x="152" y="163"/>
			<point x="170" y="185"/>
			<point x="197" y="206" type="curve"/>
			<point x="159" y="238" type="line"/>
			<point x="111" y="214"/>
			<point x="62" y="173"/>
			<point x="62" y="108" type="curve" smooth="yes"/>
			<point x="62" y="16"/>
			<point x="158" y="-4"/>
			<point x="274" y="-4" type="curve" smooth="yes"/>
			<point x="337" y="-4" type="line" smooth="yes"/>
			<point x="397" y="-4"/>
			<point x="432" y="-22"/>
			<point x="432" y="-67" type="curve" smooth="yes"/>
			<point x="432" y="-136"/>
			<point x="348" y="-144"/>
			<point x="283" y="-144" type="curve" smooth="yes"/>
			<point x="226" y="-144"/>
			<point x="126" y="-138"/>
			<point x="126" y="-50" type="curve" smooth="yes"/>
			<point x="126" y="5"/>
			<point x="165" y="42"/>
			<point x="174" y="52" type="curve"/>
			<point x="139" y="83" type="line"/>
			<point x="86" y="56"/>
			<point x="40" y="11"/>
			<point x="40" y="-66" type="curve" smooth="yes"/>
			<point x="40" y="-189"/>
			<point x="159" y="-214"/>
		</contour>
		<contour>
			<point x="282" y="152" type="curve" smooth="yes"/>
			<point x="397" y="152"/>
			<point x="489" y="235"/>
			<point x="489" y="359" type="curve" smooth="yes"/>
			<point x="489" y="417"/>
			<point x="469" y="469"/>
			<point x="430" y="508" type="curve" smooth="yes"/>
			<point x="390" y="547"/>
			<point x="337" y="566"/>
			<point x="281" y="566" type="curve" smooth="yes"/>
			<point x="164" y="566"/>
			<point x="74" y="481"/>
			<point x="74" y="359" type="curve" smooth="yes"/>
			<point x="74" y="301"/>
			<point x="94" y="249"/>
			<point x="133" y="210" type="curve" smooth="yes"/>
			<point x="172" y="172"/>
			<point x="225" y="152"/>
		</contour>
		<contour>
			<point x="282" y="223" type="curve" smooth="yes"/>
			<point x="210" y="223"/>
			<point x="169" y="277"/>
			<point x="169" y="359" type="curve" smooth="yes"/>
			<point x="169" y="442"/>
			<point x="209" y="495"/>
			<point x="282" y="495" type="curve" smooth="yes"/>
			<point x="356" y="495"/>
			<point x="394" y="441"/>
			<point x="394" y="359" type="curve" smooth="yes"/>
			<point x="394" y="276"/>
			<point x="355" y="223"/>
		</contour>
		<contour>
			<point x="352" y="480" type="line"/>
			<point x="439" y="480"/>
			<point x="478" y="483"/>
			<point x="500" y="491" type="curve" smooth="yes"/>
			<point x="519" y="498"/>
			<point x="530" y="510"/>
			<point x="530" y="542" type="curve" smooth="yes"/>
			<point x="530" y="566"/>
			<point x="524" y="580"/>
			<point x="511" y="585" type="curve"/>
			<point x="498" y="575"/>
			<point x="469" y="561"/>
			<point x="444" y="553" type="curve" smooth="yes"/>
			<point x="414" y="543"/>
			<point x="381" y="538"/>
			<point x="352" y="538" type="curve"/>
		</contour>
	</outline>
</glyph>
